<svg width="37" height="38" viewBox="0 0 37 38" fill="none" xmlns="http://www.w3.org/2000/svg">
<path d="M32.333 25.308V13.0761C32.3325 12.5398 32.1909 12.0132 31.9226 11.5489C31.6542 11.0846 31.2685 10.6991 30.804 10.4309L20.1011 4.31497C19.6362 4.04657 19.1089 3.90527 18.5721 3.90527C18.0353 3.90527 17.508 4.04657 17.0431 4.31497L6.34015 10.4309C5.87574 10.6991 5.49 11.0846 5.22163 11.5489C4.95327 12.0132 4.81171 12.5398 4.81116 13.0761V25.308C4.81171 25.8443 4.95327 26.371 5.22163 26.8353C5.49 27.2995 5.87574 27.6851 6.34015 27.9532L17.0431 34.0692C17.508 34.3376 18.0353 34.4789 18.5721 34.4789C19.1089 34.4789 19.6362 34.3376 20.1011 34.0692L30.804 27.9532C31.2685 27.6851 31.6542 27.2995 31.9226 26.8353C32.1909 26.371 32.3325 25.8443 32.333 25.308Z" stroke="#0066FF" stroke-width="1.52899" stroke-linecap="round" stroke-linejoin="round"/>
<path d="M5.22406 11.486L18.5722 19.2074L31.9203 11.486" stroke="#0066FF" stroke-width="1.52899" stroke-linecap="round" stroke-linejoin="round"/>
<path d="M18.5721 34.6044V19.1921" stroke="#0066FF" stroke-width="1.52899" stroke-linecap="round" stroke-linejoin="round"/>
</svg>
