<svg width="24" height="25" viewBox="0 0 24 25" fill="none" xmlns="http://www.w3.org/2000/svg">
<path d="M17.2343 19.7508C17.7893 19.5096 18.3276 19.2312 18.8455 18.9175L19.4948 18.5242L18.8771 18.083C18.7222 17.9723 18.5661 17.8497 18.4087 17.7149L18.1607 17.5023L17.8664 17.6441C16.0432 18.5223 14.0455 18.9783 12.0218 18.9783C9.99817 18.9783 8.00052 18.5223 6.17733 17.6441L5.87122 17.4966L5.62143 17.7269C5.48371 17.8539 5.33619 17.9698 5.18024 18.0736L4.52911 18.5068L5.19565 18.916C5.70697 19.2298 6.24076 19.5049 6.79253 19.7392C6.5447 20.1669 6.27576 20.5821 5.98672 20.9832C4.04918 20.345 2.22422 19.4049 0.579392 18.1973C0.164584 13.5249 1.38406 8.85204 4.03111 4.97736C5.41697 4.33592 6.87606 3.86709 8.37558 3.58117C8.53652 3.89125 8.68345 4.20846 8.81591 4.53186L8.96588 4.89801L9.3567 4.83621C11.1225 4.55695 12.9212 4.55695 14.687 4.83621L15.0778 4.89801L15.2278 4.53186C15.3595 4.21028 15.5055 3.89482 15.6654 3.58641C17.151 3.89369 18.5942 4.37996 19.9634 5.03478C22.6218 8.90536 23.8429 13.583 23.4169 18.2574C21.7793 19.4652 19.9603 20.4047 18.0281 21.041C17.741 20.6251 17.476 20.1945 17.2343 19.7508ZM8.00894 16.1614L8.04348 16.1639L8.07805 16.1616C8.80849 16.1129 9.49113 15.7811 9.98086 15.237C10.4663 14.6976 10.7243 13.9917 10.7013 13.2669C10.7243 12.5421 10.4663 11.8361 9.98086 11.2968C9.49113 10.7526 8.80849 10.4209 8.07805 10.3721L8.04474 10.3699L8.01143 10.3721C7.28098 10.4209 6.59835 10.7526 6.10861 11.2968C5.6229 11.8365 5.36492 12.5429 5.38821 13.2681C5.36857 13.9917 5.62756 14.6955 6.1121 15.2339C6.60065 15.7767 7.2805 16.1092 8.00894 16.1614ZM15.9632 16.1614L15.9964 16.1638L16.0297 16.1618C16.7622 16.1166 17.4477 15.7857 17.9386 15.2402C18.4247 14.7001 18.6816 13.9925 18.6556 13.2669C18.6816 12.5413 18.4247 11.8337 17.9386 11.2936C17.4477 10.7481 16.7622 10.4172 16.0297 10.372L15.9977 10.37L15.9656 10.3721C15.2352 10.4209 14.5526 10.7526 14.0628 11.2968C13.5771 11.8364 13.3191 12.5429 13.3424 13.2681C13.3228 13.9917 13.5818 14.6955 14.0663 15.2339C14.5549 15.7767 15.2347 16.1092 15.9632 16.1614Z" stroke="white"/>
</svg>
