<svg width="18" height="18" viewBox="0 0 18 18" fill="none" xmlns="http://www.w3.org/2000/svg">
<path d="M2.25 7.23908C2.25 6.93049 2.39247 6.63919 2.63606 6.44973L8.38606 1.97751C8.74717 1.69665 9.25283 1.69665 9.61394 1.97751L15.3639 6.44973C15.6075 6.63919 15.75 6.93049 15.75 7.23908V15C15.75 15.3978 15.592 15.7794 15.3107 16.0607C15.0294 16.342 14.6478 16.5 14.25 16.5H3.75C3.35218 16.5 2.97064 16.342 2.68934 16.0607C2.40804 15.7794 2.25 15.3978 2.25 15V7.23908Z" stroke="#777777" stroke-linecap="round" stroke-linejoin="round"/>
<path d="M6.75 16.5V10C6.75 9.44772 7.19772 9 7.75 9H10.25C10.8023 9 11.25 9.44772 11.25 10V16.5" stroke="#777777" stroke-linecap="round" stroke-linejoin="round"/>
</svg>
