<svg width="18" height="18" viewBox="0 0 18 18" fill="none" xmlns="http://www.w3.org/2000/svg">
<g clip-path="url(#clip0_3167_33)">
<path d="M0 11.0323V13.4129C0 14.4 0.783871 15.0968 1.74194 15.0968H16.2581C17.2161 15.0968 18 14.4 18 13.4129V11.0323H0Z" fill="#359846"/>
<path d="M16.2581 2.90323H1.74194C0.783871 2.90323 0 3.6 0 4.5871V6.96774H18V4.5871C18 3.6 17.2161 2.90323 16.2581 2.90323Z" fill="#EA8634"/>
<path d="M18 6.96774H0V11.0323H18V6.96774Z" fill="#FCFBF0"/>
<path d="M16.1998 15.0968C17.1578 15.0968 17.9998 14.4 17.9998 13.4129V11.0323H11.4385L16.1998 15.0968Z" fill="#21872F"/>
<path d="M16.2583 2.90323H1.74219L6.56154 6.96774H18.0003V4.5871C18.0003 3.6 17.2164 2.90323 16.2583 2.90323Z" fill="#E27423"/>
<path d="M11.4677 11.0323H18V6.96774H6.53223L11.4677 11.0323Z" fill="#F7F4E2"/>
<path d="M16.2583 2.90323H1.74219L15.1841 6.96774H18.0003V4.5871C18.0003 3.6 17.2164 2.90323 16.2583 2.90323Z" fill="#D86619"/>
<path d="M18.0004 7.78065V6.96774H15.0391L18.0004 7.78065Z" fill="#F2E9C2"/>
<path d="M18 13.3839C18 14.429 17.2161 15.0968 16.2581 15.0968H1.74194C0.783871 15.0968 0 14.3419 0 13.3548" fill="#167A20"/>
<path d="M8.99993 7.17097C7.9838 7.17097 7.1709 7.98388 7.1709 9.00001C7.1709 10.0161 7.9838 10.829 8.99993 10.829C10.0161 10.829 10.829 10.0161 10.829 9.00001C10.829 7.98388 10.0161 7.17097 8.99993 7.17097ZM10.5096 9.20323C10.5096 9.23226 10.5386 9.29033 10.5677 9.29033C10.5386 9.37743 10.5386 9.46452 10.5096 9.55162C10.4806 9.52259 10.4225 9.55162 10.3935 9.58065C10.3644 9.60968 10.3935 9.66775 10.4225 9.69678C10.3935 9.78388 10.3354 9.84194 10.3064 9.92904C10.2773 9.90001 10.2193 9.90001 10.1903 9.95807C10.1612 9.9871 10.1612 10.0452 10.1903 10.0742C10.1612 10.1032 10.1322 10.1323 10.1032 10.1613L9.46445 9.43549L9.20316 9.23226L9.23219 9.20323L9.49348 9.40646L10.3354 9.84194L9.58058 9.2613L9.29025 9.14517C9.29025 9.11614 9.29025 9.11614 9.31928 9.0871L9.60961 9.20323L10.5386 9.40646L9.63864 9.11614L9.31928 9.05807C9.31928 9.02904 9.31928 9.02904 9.31928 9.00001L9.63864 9.02904L10.5967 8.97097L9.63864 8.91291L9.31928 8.94194C9.31928 8.91291 9.31928 8.91291 9.31928 8.88388L9.63864 8.82581L10.5386 8.53549L9.60961 8.73872L9.31928 8.85485C9.31928 8.82581 9.31929 8.82581 9.29025 8.79678L9.58058 8.68065L10.3935 8.15807L9.55154 8.59356L9.29025 8.79678L9.26122 8.76775L9.52251 8.56452L10.1612 7.83872C10.1903 7.86775 10.2193 7.89678 10.2483 7.92581C10.2193 7.95485 10.2193 8.01291 10.2483 8.04194C10.2773 8.07097 10.3354 8.07097 10.3644 8.07097C10.4225 8.12904 10.4515 8.21614 10.4806 8.30323C10.4515 8.33226 10.4225 8.3613 10.4515 8.41936C10.4806 8.44839 10.5096 8.47743 10.5677 8.44839C10.5967 8.53549 10.6257 8.62259 10.6257 8.70968C10.5967 8.70968 10.5677 8.76775 10.5677 8.79678C10.5677 8.82581 10.6257 8.88388 10.6548 8.85485C10.6548 8.88388 10.6548 8.94194 10.6548 8.97097C10.6548 9.00001 10.6548 9.05807 10.6548 9.0871C10.5386 9.11614 10.5096 9.14517 10.5096 9.20323ZM7.9838 7.78065C8.01283 7.80968 8.0709 7.80968 8.09993 7.78065C8.12896 7.75162 8.12896 7.69356 8.12896 7.66452C8.18703 7.60646 8.27412 7.57743 8.36122 7.54839C8.39025 7.57743 8.41929 7.60646 8.47735 7.57743C8.50638 7.54839 8.53541 7.51936 8.50638 7.4613C8.59348 7.43227 8.68058 7.40323 8.76767 7.40323C8.76767 7.43226 8.82574 7.4613 8.85477 7.4613C8.8838 7.4613 8.94187 7.40323 8.91283 7.3742C8.94187 7.3742 8.99993 7.3742 9.02896 7.3742C9.058 7.3742 9.11606 7.3742 9.14509 7.3742C9.14509 7.40323 9.17412 7.4613 9.20316 7.4613C9.23219 7.4613 9.29025 7.43226 9.29025 7.40323C9.37735 7.43226 9.46445 7.43227 9.55154 7.4613C9.52251 7.49033 9.55154 7.54839 9.58058 7.57743C9.60961 7.60646 9.66767 7.57743 9.69671 7.54839C9.7838 7.57743 9.84187 7.63549 9.92896 7.66452C9.89993 7.69356 9.89993 7.75162 9.95799 7.78065C9.98703 7.80968 10.0451 7.80968 10.0741 7.78065C10.1032 7.80968 10.1322 7.83872 10.1612 7.86775L9.43541 8.50646L9.23219 8.76775L9.20316 8.73872L9.40638 8.47743L9.84187 7.63549L9.26122 8.41936L9.14509 8.70968C9.11606 8.70968 9.11606 8.70968 9.08703 8.68065L9.20316 8.39033L9.40638 7.4613L9.11606 8.3613L9.058 8.68065C9.02896 8.68065 9.02896 8.68065 8.99993 8.68065L9.02896 8.3613L8.99993 7.40323L8.94187 8.3613L8.9709 8.68065C8.94187 8.68065 8.94187 8.68065 8.91283 8.68065L8.85477 8.3613L8.56445 7.4613L8.76767 8.39033L8.8838 8.68065C8.85477 8.68065 8.85477 8.68065 8.82574 8.70968L8.70961 8.41936L8.18703 7.60646L8.62251 8.44839L8.82574 8.70968L8.7967 8.73872L8.59348 8.47743L7.86767 7.83872C7.8967 7.83872 7.92574 7.80968 7.9838 7.78065ZM7.86767 10.1323C7.83864 10.1032 7.80961 10.0742 7.78058 10.0452C7.80961 10.0161 7.80961 9.95807 7.78058 9.92904C7.75154 9.90001 7.69348 9.90001 7.66445 9.90001C7.60638 9.84194 7.57735 9.75485 7.54832 9.66775C7.57735 9.63872 7.60638 9.60968 7.57735 9.55162C7.54832 9.52259 7.51929 9.49355 7.46122 9.52259C7.43219 9.43549 7.40316 9.34839 7.40316 9.2613C7.43219 9.2613 7.46122 9.20323 7.46122 9.1742C7.46122 9.14517 7.40316 9.0871 7.37412 9.11614C7.37412 9.0871 7.37412 9.02904 7.37412 9.00001C7.37412 8.97097 7.37412 8.91291 7.37412 8.88388C7.40316 8.88388 7.46122 8.85485 7.46122 8.82581C7.46122 8.79678 7.43219 8.73872 7.40316 8.73872C7.43219 8.65162 7.43219 8.56452 7.46122 8.47743C7.49025 8.50646 7.54832 8.47743 7.57735 8.44839C7.60638 8.41936 7.57735 8.3613 7.54832 8.33227C7.57735 8.24517 7.63541 8.1871 7.66445 8.10001C7.69348 8.12904 7.75154 8.12904 7.78058 8.07097C7.80961 8.01291 7.80961 7.98388 7.78058 7.95485C7.80961 7.92581 7.83864 7.89678 7.86767 7.86775L8.50638 8.59356L8.76767 8.79678L8.73864 8.82581L8.47735 8.62259L7.63541 8.1871L8.44832 8.70968L8.73864 8.82581C8.73864 8.85485 8.73864 8.85485 8.70961 8.88388L8.41929 8.76775L7.49025 8.56452L8.39025 8.85485L8.70961 8.91291C8.70961 8.94194 8.70961 8.94194 8.70961 8.97097L8.39025 8.94194L7.40316 9.00001L8.36122 9.05807L8.68058 9.02904C8.68058 9.05807 8.68058 9.05807 8.68058 9.0871L8.36122 9.14517L7.46122 9.43549L8.39025 9.23226L8.68058 9.11614C8.68058 9.14517 8.68058 9.14517 8.70961 9.1742L8.41929 9.29033L7.60638 9.81291L8.44832 9.37743L8.70961 9.1742L8.73864 9.20323L8.47735 9.40646L7.86767 10.1323ZM8.8838 10.5968C8.8838 10.5677 8.85477 10.5097 8.82574 10.5097C8.7967 10.5097 8.73864 10.5387 8.73864 10.5677C8.65154 10.5387 8.56445 10.5387 8.47735 10.5097C8.50638 10.4807 8.47735 10.4226 8.44832 10.3936C8.41929 10.3645 8.36122 10.3936 8.33219 10.4226C8.24509 10.3936 8.18703 10.3355 8.09993 10.3065C8.12896 10.2774 8.12896 10.2194 8.0709 10.1903C8.04187 10.1613 7.9838 10.1613 7.95477 10.1903C7.92574 10.1613 7.8967 10.1323 7.86767 10.1032L8.59348 9.46452L8.7967 9.20323L8.82574 9.23226L8.62251 9.49356L8.18703 10.3355L8.70961 9.52259L8.82574 9.23226C8.85477 9.23226 8.85477 9.23226 8.8838 9.2613L8.76767 9.55162L8.56445 10.4807L8.85477 9.58065L8.91283 9.2613C8.94187 9.2613 8.94187 9.2613 8.9709 9.2613L8.94187 9.58065L8.99993 10.5387L9.058 9.58065L9.02896 9.2613C9.058 9.2613 9.05799 9.2613 9.08703 9.2613L9.14509 9.58065L9.43541 10.4807L9.23219 9.55162L9.11606 9.2613C9.14509 9.2613 9.14509 9.2613 9.17412 9.23226L9.29025 9.52259L9.81283 10.3355L9.37735 9.49356L9.17412 9.23226L9.20316 9.20323L9.40638 9.46452L10.1322 10.1032C10.1032 10.1323 10.0741 10.1613 10.0451 10.1903C10.0161 10.1613 9.958 10.1613 9.92896 10.1903C9.89993 10.2194 9.89993 10.2774 9.89993 10.3065C9.84187 10.3645 9.75477 10.3936 9.66767 10.4226C9.63864 10.3936 9.60961 10.3645 9.55154 10.3936C9.49348 10.4226 9.49348 10.4516 9.52251 10.5097C9.43541 10.5387 9.34832 10.5677 9.26122 10.5677C9.26122 10.5387 9.20316 10.5097 9.17412 10.5097C9.14509 10.5097 9.08703 10.5677 9.11606 10.5968C9.08703 10.5968 9.02896 10.5968 8.99993 10.5968C8.9709 10.5968 8.91283 10.5968 8.8838 10.5968Z" fill="#7D7DBC"/>
<path d="M9.40625 9.34839L9.49335 9.43549V9.40645L9.40625 9.34839Z" fill="#6060B2"/>
<path d="M8.99999 7.17097C8.44838 7.17097 7.95483 7.43226 7.60645 7.80968L7.78064 7.95485C7.80967 7.92581 7.8387 7.89678 7.86774 7.86775C7.89677 7.83872 7.9258 7.80968 7.95483 7.78065C7.98386 7.80968 8.04193 7.80968 8.07096 7.78065C8.09999 7.75162 8.09999 7.69356 8.09999 7.66452C8.12903 7.63549 8.18709 7.63549 8.21612 7.60646L8.65161 8.44839L8.85483 8.70968L8.8258 8.73872L8.62257 8.47743L7.89677 7.83872L8.50644 8.53549L8.59354 8.59356L8.76774 8.73872L9.26128 9.14517L9.29032 9.11614L9.55161 9.31936L10.3935 9.75484C10.3645 9.78388 10.3645 9.84194 10.3355 9.87097C10.3064 9.84194 10.2484 9.84194 10.2193 9.90001C10.1903 9.92904 10.1903 9.9871 10.2193 10.0161L10.3935 10.1613C10.6548 9.84194 10.829 9.43549 10.829 8.97097C10.829 7.98388 10.0161 7.17097 8.99999 7.17097ZM8.85483 8.70968L8.7387 8.41936L8.21612 7.63549C8.24515 7.60646 8.27419 7.57743 8.33225 7.57743C8.36128 7.60646 8.39032 7.63549 8.44838 7.60646C8.47741 7.57743 8.50645 7.54839 8.47741 7.49033C8.50645 7.49033 8.56451 7.4613 8.59354 7.4613L8.79677 8.39033L8.9129 8.68065C8.88386 8.70968 8.88386 8.70968 8.85483 8.70968ZM9.02903 8.68065L9.05806 8.3613L8.99999 7.40323L8.94193 8.3613L8.97096 8.68065C8.94193 8.68065 8.94193 8.68065 8.9129 8.68065L8.85483 8.3613L8.56451 7.4613C8.59354 7.4613 8.65161 7.43226 8.68064 7.43226C8.68064 7.4613 8.7387 7.49033 8.76774 7.49033C8.79677 7.49033 8.85483 7.43226 8.8258 7.40323C8.85483 7.40323 8.9129 7.40323 8.94193 7.40323C8.97096 7.40323 9.02903 7.40323 9.05806 7.40323C9.05806 7.43226 9.08709 7.49033 9.11612 7.49033C9.14515 7.49033 9.20322 7.4613 9.20322 7.43226C9.23225 7.43226 9.29032 7.4613 9.31935 7.4613L9.02903 8.3613L8.97096 8.68065C9.05806 8.68065 9.02903 8.68065 9.02903 8.68065ZM9.08709 8.70968L9.20322 8.41936L9.40645 7.49033C9.43548 7.49033 9.49354 7.51936 9.52257 7.51936C9.49354 7.54839 9.52257 7.60646 9.55161 7.63549C9.58064 7.66452 9.6387 7.63549 9.66774 7.60646C9.69677 7.63549 9.75483 7.63549 9.78386 7.66452L9.26128 8.41936L9.14515 8.70968C9.11612 8.70968 9.11612 8.70968 9.08709 8.70968ZM10.3935 9.58065C10.3645 9.60968 10.3935 9.66775 10.4226 9.69678C10.3935 9.72581 10.3935 9.78388 10.3645 9.81291L9.58064 9.2613L9.29032 9.14517C9.29032 9.11614 9.29032 9.11614 9.31935 9.0871L9.60967 9.20323L10.5387 9.40646C10.5387 9.43549 10.5097 9.49355 10.5097 9.52259C10.4516 9.52259 10.4226 9.55162 10.3935 9.58065ZM10.5968 8.88388C10.5968 8.91291 10.5968 8.97097 10.5968 9.00001C10.5968 9.02904 10.5968 9.0871 10.5968 9.11614C10.5677 9.11614 10.5097 9.14517 10.5097 9.1742C10.5097 9.20323 10.5387 9.2613 10.5677 9.2613C10.5677 9.29033 10.5387 9.34839 10.5387 9.37743L9.6387 9.0871L9.31935 9.02904C9.31935 9.00001 9.31935 9.00001 9.31935 8.97097L9.6387 9.00001L10.5968 8.94194L9.6387 8.88388L9.31935 8.91291C9.31935 8.88388 9.31935 8.88388 9.31935 8.85485L9.6387 8.79678L10.5387 8.50646C10.5387 8.53549 10.5677 8.59356 10.5677 8.62259C10.5387 8.62259 10.5097 8.68065 10.5097 8.70968C10.5097 8.85485 10.5387 8.88388 10.5968 8.88388ZM10.3935 8.41936C10.4226 8.44839 10.4516 8.47743 10.5097 8.44839C10.5097 8.47743 10.5387 8.53549 10.5387 8.56452L9.60967 8.76775L9.31935 8.88388C9.31935 8.85485 9.31935 8.85485 9.29032 8.82581L9.58064 8.70968L10.3645 8.1871C10.3935 8.21614 10.4226 8.24517 10.4226 8.30323C10.3935 8.33226 10.3645 8.39033 10.3935 8.41936ZM10.3645 8.21614L9.52257 8.65162L9.26128 8.85485L9.23225 8.82581L9.49354 8.62259L10.1323 7.89678L9.40645 8.53549L9.20322 8.79678L9.17419 8.76775L9.37741 8.50646L9.8129 7.66452C9.84193 7.69356 9.89999 7.69356 9.92903 7.72259C9.89999 7.75162 9.89999 7.80968 9.95806 7.83872C9.98709 7.86775 10.0452 7.86775 10.0742 7.83872C10.1032 7.86775 10.1323 7.89678 10.1613 7.92581C10.1903 7.95485 10.2193 7.98388 10.2484 8.01291C10.2193 8.04194 10.2193 8.10001 10.2484 8.12904C10.2774 8.15807 10.3355 8.15807 10.3645 8.15807C10.3355 8.12904 10.3645 8.15807 10.3645 8.21614Z" fill="#6060B2"/>
</g>
<defs>
<clipPath id="clip0_3167_33">
<rect width="18" height="18" fill="white"/>
</clipPath>
</defs>
</svg>
