<svg width="24" height="25" viewBox="0 0 24 25" fill="none" xmlns="http://www.w3.org/2000/svg">
<path d="M17 2.02463H7C4.23858 2.02463 2 4.2632 2 7.02463V17.0246C2 19.7861 4.23858 22.0246 7 22.0246H17C19.7614 22.0246 22 19.7861 22 17.0246V7.02463C22 4.2632 19.7614 2.02463 17 2.02463Z" stroke="white" stroke-linecap="round" stroke-linejoin="round"/>
<path d="M15.9997 11.3946C16.1231 12.2269 15.981 13.0768 15.5935 13.8236C15.206 14.5704 14.5929 15.176 13.8413 15.5543C13.0898 15.9326 12.2382 16.0642 11.4075 15.9306C10.5768 15.7969 9.80947 15.4047 9.21455 14.8098C8.61962 14.2149 8.22744 13.4475 8.09377 12.6168C7.96011 11.7862 8.09177 10.9345 8.47003 10.183C8.84829 9.43148 9.45389 8.81836 10.2007 8.43087C10.9475 8.04337 11.7975 7.90121 12.6297 8.02462C13.4786 8.15051 14.2646 8.54609 14.8714 9.15293C15.4782 9.75977 15.8738 10.5457 15.9997 11.3946Z" stroke="white" stroke-linecap="round" stroke-linejoin="round"/>
<path d="M17.5 6.52463H17.51" stroke="white" stroke-linecap="round" stroke-linejoin="round"/>
</svg>
