<svg width="450" height="300" viewBox="0 0 450 300" fill="none" xmlns="http://www.w3.org/2000/svg">
<path d="M400 75.7273C400 51.8284 321.65 -7.62939e-06 225 -7.62939e-06C128.35 -7.62939e-06 50 51.8284 50 75.7273C50 99.6261 128.35 109 225 109C321.65 109 400 99.6261 400 75.7273Z" fill="url(#paint0_radial_3201_30)" fill-opacity="0.1"/>
<path d="M0 302C0 302 50 232 225 232C400 232 450 302 450 302L400 78C400 78 400 108 225 108C50 108 50 78 50 78L0 302Z" fill="url(#paint1_angular_3201_30)" fill-opacity="0.2"/>
<g filter="url(#filter0_i_3201_30)">
<ellipse rx="175" ry="30" transform="matrix(1 0 0 -1 225 80)" fill="url(#paint2_radial_3201_30)"/>
<ellipse rx="175" ry="30" transform="matrix(1 0 0 -1 225 80)" fill="url(#paint3_radial_3201_30)" fill-opacity="0.2"/>
</g>
<defs>
<filter id="filter0_i_3201_30" x="50" y="50" width="350" height="65" filterUnits="userSpaceOnUse" color-interpolation-filters="sRGB">
<feFlood flood-opacity="0" result="BackgroundImageFix"/>
<feBlend mode="normal" in="SourceGraphic" in2="BackgroundImageFix" result="shape"/>
<feColorMatrix in="SourceAlpha" type="matrix" values="0 0 0 0 0 0 0 0 0 0 0 0 0 0 0 0 0 0 127 0" result="hardAlpha"/>
<feOffset dy="5"/>
<feGaussianBlur stdDeviation="5"/>
<feComposite in2="hardAlpha" operator="arithmetic" k2="-1" k3="1"/>
<feColorMatrix type="matrix" values="0 0 0 0 0 0 0 0 0 0 0 0 0 0 0 0 0 0 0.2 0"/>
<feBlend mode="normal" in2="shape" result="effect1_innerShadow_3201_30"/>
</filter>
<radialGradient id="paint0_radial_3201_30" cx="0" cy="0" r="1" gradientUnits="userSpaceOnUse" gradientTransform="translate(225 75.7273) rotate(-90) scale(75.7273 306.25)">
<stop offset="0.484835" stop-color="#111111"/>
<stop offset="1" stop-color="#777777"/>
</radialGradient>
<radialGradient id="paint1_angular_3201_30" cx="0" cy="0" r="1" gradientUnits="userSpaceOnUse" gradientTransform="translate(225 191) scale(175 77.8622)">
<stop offset="0.155096" stop-color="#1904DA"/>
<stop offset="0.249992" stop-color="#5F0FFF"/>
<stop offset="0.33884" stop-color="#C203D3"/>
<stop offset="0.580988" stop-color="#7B03D6" stop-opacity="0"/>
<stop offset="0.903744" stop-color="#5F04D7" stop-opacity="0"/>
</radialGradient>
<radialGradient id="paint2_radial_3201_30" cx="0" cy="0" r="1" gradientUnits="userSpaceOnUse" gradientTransform="translate(11.2903 15.5769) rotate(4.83104) scale(335.668 1313.46)">
<stop stop-color="#C203D3"/>
<stop offset="0.520833" stop-color="#5F0FFF"/>
<stop offset="1" stop-color="#1904DA"/>
</radialGradient>
<radialGradient id="paint3_radial_3201_30" cx="0" cy="0" r="1" gradientUnits="userSpaceOnUse" gradientTransform="translate(175) rotate(90) scale(30 175)">
<stop stop-color="white"/>
<stop offset="1" stop-color="white" stop-opacity="0"/>
</radialGradient>
</defs>
</svg>
