<svg width="18" height="19" viewBox="0 0 18 19" fill="none" xmlns="http://www.w3.org/2000/svg">
<g clip-path="url(#clip0_3148_31)">
<path d="M15.75 7.52463C15.75 12.7746 9 17.2746 9 17.2746C9 17.2746 2.25 12.7746 2.25 7.52463C2.25 5.73442 2.96116 4.01753 4.22703 2.75166C5.4929 1.48579 7.20979 0.774628 9 0.774628C10.7902 0.774628 12.5071 1.48579 13.773 2.75166C15.0388 4.01753 15.75 5.73442 15.75 7.52463Z" stroke="#777777" stroke-linecap="round" stroke-linejoin="round"/>
<path d="M9 9.77463C10.2426 9.77463 11.25 8.76727 11.25 7.52463C11.25 6.28199 10.2426 5.27463 9 5.27463C7.75736 5.27463 6.75 6.28199 6.75 7.52463C6.75 8.76727 7.75736 9.77463 9 9.77463Z" stroke="#777777" stroke-linecap="round" stroke-linejoin="round"/>
</g>
<defs>
<clipPath id="clip0_3148_31">
<rect width="18" height="18" fill="white" transform="translate(0 0.0246277)"/>
</clipPath>
</defs>
</svg>
