<svg width="22" height="20" viewBox="0 0 22 20" fill="none" xmlns="http://www.w3.org/2000/svg">
<path d="M21.1041 14.4765V17.1862C21.1052 17.4377 21.0476 17.6867 20.9348 17.9172C20.822 18.1477 20.6566 18.3546 20.4491 18.5247C20.2417 18.6947 19.9968 18.8242 19.7301 18.9048C19.4634 18.9854 19.1808 19.0153 18.9004 18.9927C15.7898 18.6907 12.8019 17.7409 10.1767 16.2197C7.73429 14.8329 5.66355 12.9827 4.11154 10.8003C2.40317 8.44389 1.34001 5.76107 1.0082 2.96915C0.982944 2.71938 1.01617 2.46764 1.10575 2.22996C1.19534 1.99229 1.33933 1.77389 1.52856 1.58866C1.71779 1.40343 1.94811 1.25544 2.20485 1.15411C2.4616 1.05278 2.73914 1.00032 3.01982 1.00009H6.05239C6.54297 0.995773 7.01856 1.151 7.39053 1.43683C7.7625 1.72267 8.00545 2.11961 8.07411 2.55366C8.20211 3.42084 8.43949 4.27229 8.78171 5.09177C8.91772 5.41507 8.94715 5.76642 8.86653 6.1042C8.78591 6.44198 8.59861 6.75203 8.32683 6.99761L7.04303 8.14473C8.48205 10.406 10.5775 12.2784 13.1082 13.5642L14.392 12.4171C14.6668 12.1742 15.0138 12.0069 15.3918 11.9348C15.7699 11.8628 16.1631 11.8891 16.5249 12.0106C17.442 12.3164 18.3949 12.5285 19.3654 12.6429C19.8565 12.7048 20.3049 12.9258 20.6255 13.2639C20.9461 13.6019 21.1164 14.0335 21.1041 14.4765Z" stroke="#787878" stroke-width="1.01798" stroke-linecap="round" stroke-linejoin="round"/>
</svg>
