<svg width="276" height="43" viewBox="0 0 276 43" fill="none" xmlns="http://www.w3.org/2000/svg">
<rect x="172.155" y="7.54291" width="0.140116" height="27.3225" fill="white"/>
<path d="M190.808 14.776L195.537 27.7506H193.161L192.31 25.4425H186.103L185.273 27.7506H182.898L187.626 14.776H190.808ZM186.842 23.4033H191.57L189.217 16.9272L186.842 23.4033ZM204.966 27.9971C203.98 27.9373 203.098 27.7207 202.321 27.3472C201.858 27.1381 201.485 26.914 201.201 26.675C200.932 26.4359 200.686 26.1371 200.461 25.7786C200.237 25.4051 200.051 24.9719 199.901 24.4789C199.752 23.971 199.677 23.3883 199.677 22.731V14.776H201.851V22.731C201.851 22.8505 201.873 23.0896 201.918 23.4481C201.963 23.7917 202.082 24.1502 202.277 24.5237C202.486 24.8823 202.799 25.2109 203.218 25.5097C203.636 25.7935 204.219 25.9355 204.966 25.9355C205.713 25.9355 206.295 25.7935 206.713 25.5097C207.132 25.2109 207.438 24.8823 207.632 24.5237C207.841 24.1502 207.968 23.7917 208.013 23.4481C208.058 23.0896 208.08 22.8505 208.08 22.731V14.776H210.254V22.731C210.254 23.3883 210.179 23.971 210.03 24.4789C209.881 24.9719 209.679 25.4051 209.425 25.7786C209.186 26.1521 208.902 26.4658 208.573 26.7198C208.26 26.9737 207.938 27.1829 207.61 27.3472C206.833 27.7207 205.952 27.9373 204.966 27.9971ZM215.762 14.776H220.692C221.663 14.776 222.537 14.9403 223.314 15.2689C224.106 15.5976 224.778 16.0532 225.331 16.6359C225.898 17.2185 226.331 17.9057 226.63 18.6975C226.944 19.4892 227.101 20.3482 227.101 21.2745C227.101 22.2007 226.944 23.0597 226.63 23.8515C226.331 24.6432 225.898 25.3304 225.331 25.9131C224.778 26.4807 224.106 26.9289 223.314 27.2576C222.537 27.5862 221.663 27.7506 220.692 27.7506H215.762V14.776ZM217.958 16.8375V25.689H220.826C221.469 25.689 222.036 25.5844 222.529 25.3753C223.037 25.1512 223.463 24.8449 223.807 24.4565C224.165 24.0681 224.434 23.605 224.613 23.0672C224.808 22.5144 224.905 21.9168 224.905 21.2745C224.905 20.6171 224.808 20.0196 224.613 19.4818C224.434 18.944 224.165 18.4809 223.807 18.0924C223.463 17.6891 223.037 17.3828 222.529 17.1737C222.036 16.9496 221.469 16.8375 220.826 16.8375H217.958ZM232.303 14.776H234.499V27.7506H232.303V14.776ZM239.597 16.8375V14.776H250.174V16.8375H245.983V27.7506H243.787V16.8375H239.597ZM259.385 27.9971C258.638 27.9971 257.981 27.9149 257.413 27.7506C256.86 27.5862 256.382 27.3846 255.979 27.1455C255.575 26.8916 255.239 26.6227 254.97 26.3388C254.716 26.055 254.507 25.801 254.343 25.5769L255.956 24.2996C256.091 24.4789 256.263 24.6656 256.472 24.8599C256.696 25.0391 256.957 25.2109 257.256 25.3753C257.57 25.5396 257.913 25.674 258.287 25.7786C258.66 25.8832 259.064 25.9355 259.497 25.9355C260.02 25.9355 260.446 25.8682 260.774 25.7338C261.103 25.5844 261.357 25.4201 261.536 25.2408C261.73 25.0466 261.857 24.8599 261.917 24.6806C261.992 24.5013 262.029 24.3669 262.029 24.2772C262.029 23.8739 261.842 23.5527 261.469 23.3137C261.11 23.0597 260.655 22.8356 260.102 22.6414C259.564 22.4472 258.974 22.253 258.332 22.0588C257.704 21.8496 257.114 21.5807 256.561 21.2521C256.024 20.9234 255.568 20.5051 255.194 19.9972C254.836 19.4892 254.657 18.8394 254.657 18.0476C254.657 17.7488 254.716 17.3978 254.836 16.9944C254.97 16.5911 255.202 16.2101 255.531 15.8516C255.874 15.493 256.33 15.1868 256.898 14.9328C257.48 14.6788 258.227 14.5519 259.138 14.5519C259.855 14.5519 260.475 14.634 260.998 14.7984C261.521 14.9478 261.962 15.1345 262.32 15.3586C262.694 15.5827 262.993 15.8217 263.217 16.0757C263.456 16.3147 263.628 16.5164 263.732 16.6807L262.141 17.8683C261.753 17.4202 261.267 17.099 260.685 16.9048C260.102 16.7106 259.534 16.6135 258.982 16.6135C258.713 16.6135 258.451 16.6583 258.197 16.7479C257.943 16.8226 257.712 16.9347 257.503 17.084C257.308 17.2334 257.144 17.4052 257.01 17.5994C256.89 17.7787 256.83 17.9804 256.83 18.2045C256.83 18.6975 257.01 19.0859 257.368 19.3697C257.742 19.6386 258.197 19.8777 258.735 20.0868C259.288 20.281 259.885 20.4678 260.528 20.647C261.17 20.8263 261.76 21.0653 262.298 21.3641C262.851 21.6629 263.306 22.0513 263.665 22.5294C264.038 23.0074 264.225 23.6423 264.225 24.4341C264.225 24.7478 264.143 25.1138 263.979 25.5321C263.829 25.9355 263.568 26.3239 263.194 26.6974C262.821 27.0559 262.32 27.3622 261.693 27.6161C261.08 27.8701 260.311 27.9971 259.385 27.9971Z" fill="white"/>
<path d="M268.799 15.8133C268.621 15.8133 268.465 15.7938 268.33 15.7547C268.199 15.7157 268.085 15.6678 267.989 15.611C267.894 15.5506 267.814 15.4867 267.75 15.4193C267.689 15.3519 267.64 15.2915 267.601 15.2383L267.984 14.9348C268.016 14.9774 268.057 15.0217 268.106 15.0679C268.16 15.1105 268.222 15.1513 268.293 15.1903C268.367 15.2294 268.449 15.2613 268.538 15.2862C268.627 15.311 268.722 15.3235 268.825 15.3235C268.95 15.3235 269.051 15.3075 269.129 15.2755C269.207 15.24 269.267 15.201 269.31 15.1584C269.356 15.1123 269.386 15.0679 269.4 15.0253C269.418 14.9827 269.427 14.9508 269.427 14.9295C269.427 14.8336 269.383 14.7573 269.294 14.7005C269.209 14.6402 269.1 14.5869 268.969 14.5408C268.841 14.4946 268.701 14.4485 268.548 14.4023C268.399 14.3526 268.259 14.2888 268.128 14.2107C268 14.1326 267.892 14.0332 267.803 13.9125C267.718 13.7918 267.675 13.6374 267.675 13.4493C267.675 13.3783 267.689 13.2949 267.718 13.199C267.75 13.1032 267.805 13.0127 267.883 12.9275C267.965 12.8423 268.073 12.7695 268.208 12.7092C268.346 12.6488 268.524 12.6187 268.74 12.6187C268.91 12.6187 269.058 12.6382 269.182 12.6772C269.306 12.7127 269.411 12.7571 269.496 12.8103C269.585 12.8636 269.656 12.9204 269.709 12.9807C269.766 13.0375 269.807 13.0854 269.832 13.1245L269.454 13.4067C269.361 13.3002 269.246 13.2239 269.107 13.1777C268.969 13.1316 268.834 13.1085 268.703 13.1085C268.639 13.1085 268.577 13.1192 268.516 13.1405C268.456 13.1582 268.401 13.1848 268.351 13.2203C268.305 13.2558 268.266 13.2966 268.234 13.3428C268.206 13.3854 268.192 13.4333 268.192 13.4865C268.192 13.6037 268.234 13.696 268.319 13.7634C268.408 13.8273 268.516 13.8841 268.644 13.9338C268.776 13.9799 268.918 14.0243 269.07 14.0669C269.223 14.1095 269.363 14.1663 269.491 14.2373C269.622 14.3083 269.73 14.4006 269.816 14.5142C269.904 14.6277 269.949 14.7786 269.949 14.9667C269.949 15.0413 269.929 15.1282 269.89 15.2276C269.855 15.3235 269.793 15.4157 269.704 15.5045C269.615 15.5897 269.496 15.6624 269.347 15.7228C269.202 15.7831 269.019 15.8133 268.799 15.8133ZM272.464 15.2649L271.388 13.5451V15.7547H270.866V12.6719H271.457L272.501 14.3384L273.545 12.6719H274.136V15.7547H273.614V13.5451L272.538 15.2649H272.464Z" fill="white"/>
<path d="M70.8561 29.3229C70.2841 29.843 69.7121 30.246 69.14 30.532C68.568 30.818 68.022 31.026 67.5019 31.156C66.9819 31.286 66.4879 31.364 66.0198 31.39C65.5778 31.416 65.1878 31.429 64.8498 31.429C63.6797 31.429 62.5746 31.208 61.5346 30.766C60.5205 30.298 59.6235 29.6739 58.8434 28.8939C58.0894 28.0879 57.4783 27.1648 57.0103 26.1247C56.5683 25.0587 56.3473 23.9276 56.3473 22.7315C56.3473 21.5355 56.5683 20.4174 57.0103 19.3774C57.4783 18.3113 58.0894 17.3882 58.8434 16.6082C59.6235 15.8021 60.5205 15.1781 61.5346 14.7361C62.5746 14.2681 63.6797 14.034 64.8498 14.034C65.1878 14.034 65.5778 14.047 66.0198 14.0731C66.4879 14.0991 66.9819 14.1771 67.5019 14.3071C68.022 14.4371 68.568 14.6451 69.14 14.9311C69.7121 15.2171 70.2841 15.6201 70.8561 16.1402V14.4631H74.6783V31H70.8561V29.3229ZM65.4738 27.8408C66.2279 27.8408 66.9299 27.7238 67.5799 27.4898C68.23 27.2298 68.789 26.8788 69.257 26.4368C69.7511 25.9687 70.1411 25.4227 70.4271 24.7987C70.7131 24.1746 70.8561 23.4856 70.8561 22.7315C70.8561 21.9775 70.7131 21.2885 70.4271 20.6644C70.1411 20.0404 69.7511 19.5074 69.257 19.0653C68.789 18.5973 68.23 18.2463 67.5799 18.0123C66.9299 17.7523 66.2279 17.6223 65.4738 17.6223C64.7458 17.6223 64.0567 17.7523 63.4067 18.0123C62.7567 18.2463 62.1846 18.5973 61.6906 19.0653C61.2226 19.5074 60.8455 20.0404 60.5595 20.6644C60.2995 21.2885 60.1695 21.9775 60.1695 22.7315C60.1695 23.4856 60.2995 24.1746 60.5595 24.7987C60.8455 25.4227 61.2226 25.9687 61.6906 26.4368C62.1846 26.8788 62.7567 27.2298 63.4067 27.4898C64.0567 27.7238 64.7458 27.8408 65.4738 27.8408Z" fill="white"/>
<path d="M16.4527 29.3229C15.8806 29.843 15.3086 30.246 14.7366 30.532C14.1645 30.818 13.6185 31.026 13.0985 31.156C12.5785 31.286 12.0844 31.364 11.6164 31.39C11.1744 31.416 10.7844 31.429 10.4463 31.429C9.27626 31.429 8.1712 31.208 7.13114 30.766C6.11708 30.298 5.22003 29.6739 4.43999 28.8939C3.68594 28.0879 3.07491 27.1648 2.60688 26.1247C2.16486 25.0587 1.94384 23.9276 1.94384 22.7315C1.94384 21.5355 2.16486 20.4174 2.60688 19.3774C3.07491 18.3113 3.68594 17.3882 4.43999 16.6082C5.22003 15.8021 6.11708 15.1781 7.13114 14.7361C8.1712 14.2681 9.27626 14.034 10.4463 14.034C10.7844 14.034 11.1744 14.047 11.6164 14.073C12.0844 14.099 12.5785 14.1771 13.0985 14.3071C13.6185 14.4371 14.1645 14.6451 14.7366 14.9311C15.3086 15.2171 15.8806 15.6201 16.4527 16.1402V7.67668H20.2749V31H16.4527V29.3229ZM11.0704 27.8408C11.8244 27.8408 12.5265 27.7238 13.1765 27.4898C13.8265 27.2298 14.3856 26.8788 14.8536 26.4368C15.3476 25.9687 15.7376 25.4227 16.0237 24.7987C16.3097 24.1746 16.4527 23.4856 16.4527 22.7315C16.4527 21.9775 16.3097 21.2885 16.0237 20.6644C15.7376 20.0404 15.3476 19.5074 14.8536 19.0653C14.3856 18.5973 13.8265 18.2463 13.1765 18.0123C12.5265 17.7523 11.8244 17.6223 11.0704 17.6223C10.3423 17.6223 9.65329 17.7523 9.00325 18.0123C8.35321 18.2463 7.78118 18.5973 7.28715 19.0653C6.81912 19.5074 6.4421 20.0404 6.15608 20.6644C5.89607 21.2885 5.76606 21.9775 5.76606 22.7315C5.76606 23.4856 5.89607 24.1746 6.15608 24.7987C6.4421 25.4227 6.81912 25.9687 7.28715 26.4368C7.78118 26.8788 8.35321 27.2298 9.00325 27.4898C9.65329 27.7238 10.3423 27.8408 11.0704 27.8408Z" fill="white"/>
<path d="M36.7414 24.3696H23.5587C23.7667 25.0717 24.0527 25.6437 24.4167 26.0857C24.7807 26.5278 25.1838 26.8788 25.6258 27.1388C26.0938 27.3988 26.5748 27.5808 27.0689 27.6848C27.5629 27.7888 28.0439 27.8408 28.512 27.8408C28.928 27.8408 29.37 27.8018 29.838 27.7238C30.2801 27.6718 30.7351 27.5808 31.2031 27.4508C31.6711 27.3208 32.1522 27.1388 32.6462 26.9048L34.7913 29.947C34.1933 30.233 33.5562 30.48 32.8802 30.688C32.2562 30.896 31.5671 31.065 30.8131 31.195C30.085 31.351 29.305 31.429 28.473 31.429C27.2249 31.429 26.0678 31.221 25.0018 30.805C23.9357 30.389 23.0126 29.804 22.2326 29.0499C21.4526 28.2699 20.8415 27.3468 20.3995 26.2808C19.9575 25.2147 19.7365 24.0316 19.7365 22.7315C19.7365 21.5355 19.9445 20.4174 20.3605 19.3774C20.7765 18.3113 21.3615 17.3882 22.1156 16.6082C22.8696 15.8021 23.7667 15.1781 24.8067 14.7361C25.8468 14.2681 26.9909 14.034 28.2389 14.034C29.331 14.034 30.3841 14.2291 31.3981 14.6191C32.4122 14.9831 33.3092 15.5551 34.0893 16.3352C34.8953 17.0892 35.5324 18.0383 36.0004 19.1823C36.4944 20.3004 36.7414 21.6005 36.7414 23.0826V24.3696ZM28.2389 17.6223C27.3289 17.6223 26.4188 17.8953 25.5088 18.4413C24.5987 18.9873 23.9617 19.8714 23.5977 21.0935H32.8802C32.5422 19.8714 31.9052 18.9873 30.9691 18.4413C30.059 17.8953 29.149 17.6223 28.2389 17.6223ZM26.3278 12.2399L28.98 7.32566H33.3482L30.111 12.2399H26.3278Z" fill="white"/>
<path d="M135.243 24.3696H122.06C122.268 25.0717 122.554 25.6437 122.918 26.0857C123.282 26.5278 123.685 26.8788 124.127 27.1388C124.595 27.3988 125.076 27.5808 125.57 27.6848C126.064 27.7888 126.545 27.8408 127.013 27.8408C127.429 27.8408 127.871 27.8018 128.339 27.7238C128.781 27.6718 129.236 27.5808 129.704 27.4508C130.172 27.3208 130.653 27.1388 131.147 26.9048L133.293 29.947C132.695 30.233 132.057 30.48 131.381 30.688C130.757 30.896 130.068 31.065 129.314 31.195C128.586 31.351 127.806 31.429 126.974 31.429C125.726 31.429 124.569 31.221 123.503 30.805C122.437 30.389 121.514 29.804 120.734 29.0499C119.954 28.2699 119.343 27.3468 118.901 26.2808C118.459 25.2147 118.238 24.0316 118.238 22.7315C118.238 21.5355 118.446 20.4174 118.862 19.3774C119.278 18.3113 119.863 17.3882 120.617 16.6082C121.371 15.8021 122.268 15.1781 123.308 14.7361C124.348 14.2681 125.492 14.034 126.74 14.034C127.832 14.034 128.885 14.2291 129.899 14.6191C130.913 14.9831 131.81 15.5551 132.591 16.3352C133.397 17.0892 134.034 18.0383 134.502 19.1823C134.996 20.3004 135.243 21.6005 135.243 23.0826V24.3696ZM126.74 17.6223C125.83 17.6223 124.92 17.8953 124.01 18.4413C123.1 18.9873 122.463 19.8714 122.099 21.0935H131.381C131.043 19.8714 130.406 18.9873 129.47 18.4413C128.56 17.8953 127.65 17.6223 126.74 17.6223Z" fill="white"/>
<path d="M151.216 24.3696H138.033C138.241 25.0717 138.527 25.6437 138.891 26.0857C139.255 26.5278 139.658 26.8788 140.1 27.1388C140.568 27.3988 141.049 27.5808 141.543 27.6848C142.037 27.7888 142.518 27.8408 142.986 27.8408C143.402 27.8408 143.844 27.8018 144.312 27.7238C144.755 27.6718 145.21 27.5808 145.678 27.4508C146.146 27.3208 146.627 27.1388 147.121 26.9048L149.266 29.947C148.668 30.233 148.031 30.48 147.355 30.688C146.731 30.896 146.042 31.065 145.288 31.195C144.559 31.351 143.779 31.429 142.947 31.429C141.699 31.429 140.542 31.221 139.476 30.805C138.41 30.389 137.487 29.804 136.707 29.0499C135.927 28.2699 135.316 27.3468 134.874 26.2808C134.432 25.2147 134.211 24.0316 134.211 22.7315C134.211 21.5355 134.419 20.4174 134.835 19.3774C135.251 18.3113 135.836 17.3882 136.59 16.6082C137.344 15.8021 138.241 15.1781 139.281 14.7361C140.321 14.2681 141.465 14.034 142.713 14.034C143.805 14.034 144.859 14.2291 145.873 14.6191C146.887 14.9831 147.784 15.5551 148.564 16.3352C149.37 17.0892 150.007 18.0383 150.475 19.1823C150.969 20.3004 151.216 21.6005 151.216 23.0826V24.3696ZM142.713 17.6223C141.803 17.6223 140.893 17.8953 139.983 18.4413C139.073 18.9873 138.436 19.8714 138.072 21.0935H147.355C147.017 19.8714 146.38 18.9873 145.444 18.4413C144.533 17.8953 143.623 17.6223 142.713 17.6223Z" fill="white"/>
<path d="M43.9102 31H38.8009L33.9256 14.4631H38.0209L41.2971 26.9438L44.6513 14.4631H48.8635L52.2177 26.9438L55.4939 14.4631H59.5891L54.7138 31H49.6045L46.7574 20.1184L43.9102 31Z" fill="white"/>
<path d="M76.7859 7.67668H80.6081V31H76.7859V7.67668Z" fill="white"/>
<path d="M83.0219 7.67668H86.8441V31H83.0219V7.67668Z" fill="white"/>
<path d="M98.1019 14.4631H101.651V8.72974C102.405 8.54773 103.055 8.37872 103.601 8.22271C104.147 8.0407 104.771 7.85869 105.473 7.67668V14.4631H109.998V18.0513H105.473V24.7207C105.473 24.9027 105.486 25.1627 105.512 25.5007C105.564 25.8127 105.681 26.1247 105.863 26.4368C106.045 26.7488 106.344 27.0218 106.76 27.2558C107.176 27.4898 107.748 27.6068 108.477 27.6068C108.659 27.6068 108.841 27.6068 109.023 27.6068C109.205 27.6068 109.374 27.6068 109.53 27.6068C109.686 27.5808 109.829 27.5678 109.959 27.5678V30.883C109.725 30.909 109.465 30.922 109.179 30.922C108.919 30.948 108.62 30.974 108.282 31C107.97 31 107.605 31 107.189 31C106.981 31 106.565 30.974 105.941 30.922C105.343 30.844 104.719 30.61 104.069 30.22C103.445 29.804 102.886 29.1669 102.392 28.3089C101.898 27.4508 101.651 26.2287 101.651 24.6427V18.0513H98.1019V14.4631Z" fill="white"/>
<path d="M148.24 14.4631H151.789V8.72974C152.543 8.54773 153.193 8.37872 153.739 8.22271C154.285 8.0407 154.909 7.85869 155.611 7.67668V14.4631H160.136V18.0513H155.611V24.7207C155.611 24.9027 155.624 25.1627 155.65 25.5007C155.702 25.8127 155.819 26.1247 156.001 26.4368C156.183 26.7488 156.482 27.0218 156.898 27.2558C157.314 27.4898 157.887 27.6068 158.615 27.6068C158.797 27.6068 158.979 27.6068 159.161 27.6068C159.343 27.6068 159.512 27.6068 159.668 27.6068C159.824 27.5808 159.967 27.5678 160.097 27.5678V30.883C159.863 30.909 159.603 30.922 159.317 30.922C159.057 30.948 158.758 30.974 158.42 31C158.108 31 157.744 31 157.327 31C157.119 31 156.703 30.974 156.079 30.922C155.481 30.844 154.857 30.61 154.207 30.22C153.583 29.804 153.024 29.1669 152.53 28.3089C152.036 27.4508 151.789 26.2287 151.789 24.6427V18.0513H148.24V14.4631Z" fill="white"/>
<path d="M110.751 14.4631H114.573V17.1152C115.067 16.4132 115.613 15.8672 116.211 15.4771C116.809 15.0871 117.381 14.8011 117.927 14.6191C118.473 14.4371 118.967 14.3331 119.409 14.3071C119.851 14.2811 120.15 14.2681 120.306 14.2681C120.488 14.2681 120.683 14.2681 120.891 14.2681C121.125 14.2681 121.346 14.2811 121.554 14.3071V17.9733C121.268 17.9213 121.034 17.8823 120.852 17.8563C120.748 17.8563 120.67 17.8563 120.618 17.8563C119.578 17.8563 118.668 18.0903 117.888 18.5583C117.134 19.0003 116.51 19.5594 116.016 20.2354C115.522 20.9114 115.158 21.6395 114.924 22.4195C114.69 23.1996 114.573 23.9146 114.573 24.5647V31H110.751V14.4631Z" fill="white"/>
<path d="M89.6303 26.3978C89.9163 26.7878 90.2673 27.0998 90.6833 27.3338C91.1254 27.5418 91.5544 27.6848 91.9704 27.7628C92.4384 27.8928 92.9325 27.9708 93.4525 27.9969C93.6085 27.9969 93.8685 27.9969 94.2326 27.9969C94.6226 27.9708 95.0126 27.9058 95.4026 27.8018C95.8186 27.6978 96.1697 27.5548 96.4557 27.3728C96.7677 27.1648 96.9237 26.8658 96.9237 26.4758C96.9237 26.0077 96.6897 25.6567 96.2217 25.4227C95.7536 25.1627 95.1556 24.9417 94.4276 24.7597C93.7255 24.5777 92.9585 24.3826 92.1264 24.1746C91.3204 23.9666 90.5533 23.6676 89.8253 23.2776C89.1233 22.8616 88.5382 22.3285 88.0702 21.6785C87.6022 21.0285 87.3682 20.1574 87.3682 19.0653C87.3682 18.4933 87.4982 17.9083 87.7582 17.3102C88.0182 16.7122 88.4212 16.1792 88.9672 15.7111C89.5133 15.2171 90.1893 14.8141 90.9954 14.5021C91.8274 14.1901 92.7895 14.034 93.8815 14.034C94.6616 14.034 95.3636 14.1251 95.9877 14.3071C96.6117 14.4631 97.1577 14.6711 97.6257 14.9311C98.0938 15.1651 98.4968 15.4251 98.8348 15.7111C99.1728 15.9972 99.4459 16.2702 99.6539 16.5302L97.3137 18.7923C97.0017 18.5583 96.6637 18.3373 96.2997 18.1293C95.9356 17.9733 95.5456 17.8303 95.1296 17.7003C94.7396 17.5703 94.3106 17.5052 93.8425 17.5052C93.5825 17.5052 93.2965 17.5312 92.9845 17.5833C92.6725 17.6353 92.3734 17.7263 92.0874 17.8563C91.8274 17.9603 91.6064 18.1163 91.4244 18.3243C91.2684 18.5323 91.1904 18.7923 91.1904 19.1043C91.1904 19.6504 91.4244 20.0664 91.8924 20.3524C92.3604 20.6384 92.9455 20.8854 93.6475 21.0935C94.3756 21.2755 95.1426 21.4705 95.9487 21.6785C96.7807 21.8605 97.5477 22.1335 98.2498 22.4975C98.9778 22.8616 99.5759 23.3686 100.044 24.0186C100.512 24.6427 100.746 25.4877 100.746 26.5538C100.746 27.0738 100.59 27.6198 100.278 28.1919C99.9919 28.7639 99.5499 29.2969 98.9518 29.791C98.3798 30.259 97.6647 30.649 96.8067 30.961C95.9487 31.273 94.9476 31.429 93.8035 31.429C92.8415 31.429 91.9834 31.325 91.2294 31.117C90.4753 30.909 89.8123 30.649 89.2403 30.337C88.6682 29.999 88.1872 29.6349 87.7972 29.2449C87.4332 28.8549 87.1341 28.4909 86.9001 28.1529L89.6303 26.3978Z" fill="white"/>
</svg>
