<svg width="24" height="25" viewBox="0 0 24 25" fill="none" xmlns="http://www.w3.org/2000/svg">
<path d="M22.5599 2.62349L22.5732 2.61838L22.5861 2.61252C22.9302 2.45685 23.175 2.53 23.3039 2.65453C23.4394 2.78552 23.592 3.11429 23.4321 3.75544L23.43 3.76401L23.4281 3.77265L19.8082 20.8329L19.8078 20.8346C19.6952 21.3747 19.5065 21.5588 19.3784 21.6164C19.2501 21.6742 19.0002 21.6878 18.5665 21.4552L13.0798 17.4026L12.7384 17.1504L12.4342 17.4463L9.78439 20.023L9.78304 20.0243L9.77738 20.0297C9.69624 20.108 9.63267 20.1694 9.57625 20.2191L9.88922 15.5425L19.9673 6.44704C19.9679 6.44654 19.9684 6.44605 19.969 6.44555C20.1092 6.32073 20.2892 6.11498 20.2997 5.83693C20.3056 5.67964 20.2542 5.52837 20.1532 5.40808C20.0589 5.2957 19.9416 5.23352 19.8427 5.19957C19.6507 5.13367 19.4423 5.14289 19.2631 5.18001C19.0744 5.21912 18.8752 5.29775 18.6812 5.41574L18.6812 5.41569L18.6743 5.42003L6.24107 13.2646L1.00336 11.6307L1.00113 11.63C0.749443 11.5528 0.607274 11.4647 0.539334 11.4005C0.518119 11.3804 0.507401 11.3664 0.502253 11.358C0.509552 11.3385 0.536787 11.2834 0.632773 11.1985C0.76055 11.0855 0.97554 10.9524 1.30388 10.8202L22.5599 2.62349ZM0.498027 11.3484C0.498323 11.3484 0.499179 11.3501 0.499706 11.3535C0.497994 11.35 0.49773 11.3484 0.498027 11.3484Z" stroke="white"/>
</svg>
