<svg width="24" height="25" viewBox="0 0 24 25" fill="none" xmlns="http://www.w3.org/2000/svg">
<path d="M23 3.02463C22.0424 3.70011 20.9821 4.21674 19.86 4.55463C19.2577 3.86214 18.4573 3.37132 17.567 3.14855C16.6767 2.92579 15.7395 2.98182 14.8821 3.30908C14.0247 3.63634 13.2884 4.21903 12.773 4.97834C12.2575 5.73766 11.9877 6.63696 12 7.55463V8.55463C10.2426 8.6002 8.50127 8.21044 6.93101 7.42007C5.36074 6.62971 4.01032 5.46326 3 4.02463C3 4.02463 -1 13.0246 8 17.0246C5.94053 18.4226 3.48716 19.1236 1 19.0246C10 24.0246 21 19.0246 21 7.52463C20.9991 7.24608 20.9723 6.96822 20.92 6.69463C21.9406 5.68812 22.6608 4.41734 23 3.02463V3.02463Z" stroke="white" stroke-linecap="round" stroke-linejoin="round"/>
</svg>
