<svg width="105" height="25" viewBox="0 0 105 25" fill="none" xmlns="http://www.w3.org/2000/svg">
<rect x="32.6934" y="3.05957" width="0.247686" height="18.8241" fill="white"/>
<path d="M40.1467 9.24683H40.7369V13.4141H40.1467V9.24683ZM47.0682 9.24683H47.6584V13.4141H47.061L44.6356 10.2113V13.4141H44.0454V9.24683H44.6428L47.0682 12.4424V9.24683ZM51.5565 9.78663V12.8743H52.5713C52.7968 12.8743 52.9959 12.8383 53.1687 12.7663C53.3462 12.6895 53.4974 12.584 53.6221 12.4496C53.7469 12.3105 53.8404 12.1473 53.9028 11.9602C53.97 11.7683 54.0036 11.5596 54.0036 11.334C54.0036 11.1085 53.97 10.9022 53.9028 10.7151C53.8404 10.5231 53.7469 10.36 53.6221 10.2257C53.4974 10.0865 53.3462 9.97855 53.1687 9.90178C52.9959 9.82501 52.7968 9.78663 52.5713 9.78663H51.5565ZM54.5937 11.3268C54.5937 11.6243 54.5482 11.9002 54.457 12.1545C54.3658 12.4088 54.2315 12.6296 54.0539 12.8167C53.8812 13.0038 53.6677 13.1502 53.4134 13.2557C53.1591 13.3613 52.8688 13.4141 52.5425 13.4141H50.9663V9.24683H52.5425C52.8688 9.24683 53.1591 9.29961 53.4134 9.40517C53.6677 9.51073 53.8812 9.65707 54.0539 9.8442C54.2315 10.0313 54.3658 10.2521 54.457 10.5064C54.5482 10.7559 54.5937 11.0294 54.5937 11.3268ZM59.4089 13.4932C59.3945 13.4932 59.3417 13.4908 59.2506 13.486C59.1594 13.4812 59.0514 13.462 58.9267 13.4285C58.8019 13.3997 58.6676 13.3517 58.5236 13.2845C58.3845 13.2173 58.2549 13.1214 58.135 12.9966C58.015 12.8719 57.9143 12.7135 57.8327 12.5216C57.7559 12.3297 57.7175 12.0946 57.7175 11.8163V9.24683H58.3077V11.8163C58.3077 11.8594 58.3149 11.9434 58.3293 12.0682C58.3437 12.1929 58.3869 12.3225 58.4589 12.4568C58.5308 12.5864 58.6412 12.7015 58.7899 12.8023C58.9387 12.9031 59.145 12.9534 59.4089 12.9534C59.6776 12.9534 59.8839 12.9031 60.0279 12.8023C60.1766 12.7015 60.287 12.5864 60.3589 12.4568C60.4309 12.3225 60.4741 12.1929 60.4885 12.0682C60.5029 11.9434 60.5101 11.8594 60.5101 11.8163V9.24683H61.1003V11.8163C61.1003 12.0946 61.0595 12.3297 60.9779 12.5216C60.9011 12.7135 60.8028 12.8719 60.6828 12.9966C60.5629 13.1214 60.4309 13.2173 60.287 13.2845C60.1478 13.3517 60.0159 13.3997 59.8911 13.4285C59.7664 13.462 59.6584 13.4812 59.5672 13.486C59.4761 13.4908 59.4233 13.4932 59.4089 13.4932ZM65.7616 13.4932C65.5313 13.4932 65.3298 13.4692 65.1571 13.4213C64.9843 13.3733 64.8332 13.3157 64.7036 13.2485C64.5789 13.1766 64.4733 13.0998 64.387 13.0182C64.3006 12.9318 64.231 12.8527 64.1782 12.7807L64.6029 12.4424C64.6557 12.5 64.7228 12.56 64.8044 12.6224C64.886 12.6799 64.9771 12.7351 65.0779 12.7879C65.1835 12.8359 65.2962 12.8767 65.4162 12.9103C65.5361 12.939 65.6633 12.9534 65.7976 12.9534C65.9895 12.9534 66.1431 12.927 66.2582 12.8743C66.3782 12.8215 66.4694 12.7615 66.5317 12.6943C66.5989 12.6224 66.6445 12.5528 66.6685 12.4856C66.6925 12.4136 66.7045 12.3633 66.7045 12.3345C66.7045 12.1905 66.6445 12.0754 66.5245 11.989C66.4046 11.9026 66.2535 11.8259 66.0711 11.7587C65.8888 11.6915 65.6921 11.6243 65.4809 11.5572C65.2746 11.49 65.0803 11.4036 64.898 11.2981C64.7156 11.1925 64.5645 11.0581 64.4445 10.895C64.3246 10.7319 64.2646 10.5208 64.2646 10.2616C64.2646 10.1657 64.2838 10.0553 64.3222 9.93057C64.3654 9.80582 64.4373 9.68826 64.5381 9.5779C64.6437 9.46275 64.7876 9.36678 64.9699 9.29001C65.1523 9.21324 65.3874 9.17486 65.6753 9.17486C65.8816 9.17486 66.0639 9.19645 66.2223 9.23963C66.3806 9.28282 66.5174 9.3356 66.6325 9.39797C66.7477 9.46035 66.8436 9.52752 66.9204 9.5995C66.9972 9.67147 67.0571 9.73625 67.1003 9.79382C67.0188 9.8466 66.9492 9.89938 66.8916 9.95216C66.834 10.0001 66.7669 10.0505 66.6901 10.1033C66.5509 9.96416 66.383 9.8658 66.1863 9.80822C65.9943 9.74584 65.8072 9.71465 65.6249 9.71465C65.5241 9.71465 65.4282 9.72665 65.337 9.75064C65.2458 9.77463 65.1643 9.81302 65.0923 9.8658C65.0203 9.91378 64.9627 9.97616 64.9196 10.0529C64.8764 10.1249 64.8548 10.2113 64.8548 10.312C64.8548 10.4896 64.9148 10.6287 65.0347 10.7295C65.1547 10.8302 65.3058 10.9166 65.4881 10.9886C65.6705 11.0605 65.8648 11.1277 66.0711 11.1901C66.2822 11.2477 66.479 11.3244 66.6613 11.4204C66.8436 11.5164 66.9948 11.6387 67.1147 11.7875C67.2347 11.9362 67.2947 12.1353 67.2947 12.3848C67.2947 12.4808 67.2683 12.5936 67.2155 12.7231C67.1675 12.8479 67.0835 12.9678 66.9636 13.083C66.8484 13.1981 66.6925 13.2965 66.4958 13.3781C66.299 13.4548 66.0543 13.4932 65.7616 13.4932ZM69.9958 9.78663V9.24683H73.3642V9.78663H71.9751V13.4141H71.3849V9.78663H69.9958ZM79.6015 10.6863C79.6015 10.931 79.5679 11.1373 79.5007 11.3053C79.4335 11.4684 79.3496 11.6027 79.2488 11.7083C79.148 11.8139 79.0353 11.8954 78.9105 11.953C78.7906 12.0106 78.6754 12.0538 78.5651 12.0826L79.6015 13.4141H78.9249L77.9245 12.1329H77.0824V13.4141H76.4922V9.24683H78.0972C78.1356 9.24683 78.198 9.24923 78.2844 9.25403C78.3707 9.25882 78.4691 9.27562 78.5795 9.30441C78.6946 9.3332 78.8122 9.37638 78.9321 9.43396C79.0521 9.49154 79.16 9.57311 79.256 9.67867C79.3568 9.78423 79.4383 9.91858 79.5007 10.0817C79.5679 10.2449 79.6015 10.4464 79.6015 10.6863ZM77.0824 11.5931H78.1116C78.2412 11.5931 78.3587 11.5788 78.4643 11.55C78.5747 11.5164 78.6706 11.466 78.7522 11.3988C78.8338 11.3268 78.8961 11.2333 78.9393 11.1181C78.9873 11.003 79.0113 10.8614 79.0113 10.6935C79.0113 10.5255 78.9873 10.384 78.9393 10.2688C78.8961 10.1537 78.8338 10.0601 78.7522 9.98815C78.6706 9.91618 78.5747 9.8658 78.4643 9.83701C78.3587 9.80342 78.2412 9.78663 78.1116 9.78663H77.0824V11.5931ZM82.6119 9.24683H83.2021V13.4141H82.6119V9.24683ZM89.2455 12.8743V13.4141H86.5105V9.24683H89.2455V9.78663H87.1007V11.1109H89.0872V11.6507H87.1007V12.8743H89.2455ZM93.8367 13.4932C93.6064 13.4932 93.4049 13.4692 93.2321 13.4213C93.0594 13.3733 92.9083 13.3157 92.7787 13.2485C92.6539 13.1766 92.5484 13.0998 92.462 13.0182C92.3757 12.9318 92.3061 12.8527 92.2533 12.7807L92.6779 12.4424C92.7307 12.5 92.7979 12.56 92.8795 12.6224C92.961 12.6799 93.0522 12.7351 93.153 12.7879C93.2585 12.8359 93.3713 12.8767 93.4912 12.9103C93.6112 12.939 93.7383 12.9534 93.8727 12.9534C94.0646 12.9534 94.2182 12.927 94.3333 12.8743C94.4533 12.8215 94.5444 12.7615 94.6068 12.6943C94.674 12.6224 94.7196 12.5528 94.7436 12.4856C94.7676 12.4136 94.7795 12.3633 94.7795 12.3345C94.7795 12.1905 94.7196 12.0754 94.5996 11.989C94.4797 11.9026 94.3285 11.8259 94.1462 11.7587C93.9639 11.6915 93.7671 11.6243 93.556 11.5572C93.3497 11.49 93.1554 11.4036 92.973 11.2981C92.7907 11.1925 92.6396 11.0581 92.5196 10.895C92.3996 10.7319 92.3397 10.5208 92.3397 10.2616C92.3397 10.1657 92.3589 10.0553 92.3972 9.93057C92.4404 9.80582 92.5124 9.68826 92.6132 9.5779C92.7187 9.46275 92.8627 9.36678 93.045 9.29001C93.2273 9.21324 93.4624 9.17486 93.7503 9.17486C93.9567 9.17486 94.139 9.19645 94.2973 9.23963C94.4557 9.28282 94.5924 9.3356 94.7076 9.39797C94.8227 9.46035 94.9187 9.52752 94.9955 9.5995C95.0722 9.67147 95.1322 9.73625 95.1754 9.79382C95.0938 9.8466 95.0243 9.89938 94.9667 9.95216C94.9091 10.0001 94.8419 10.0505 94.7652 10.1033C94.626 9.96416 94.4581 9.8658 94.2613 9.80822C94.0694 9.74584 93.8823 9.71465 93.7 9.71465C93.5992 9.71465 93.5032 9.72665 93.4121 9.75064C93.3209 9.77463 93.2393 9.81302 93.1674 9.8658C93.0954 9.91378 93.0378 9.97616 92.9946 10.0529C92.9514 10.1249 92.9298 10.2113 92.9298 10.312C92.9298 10.4896 92.9898 10.6287 93.1098 10.7295C93.2297 10.8302 93.3809 10.9166 93.5632 10.9886C93.7455 11.0605 93.9399 11.1277 94.1462 11.1901C94.3573 11.2477 94.554 11.3244 94.7364 11.4204C94.9187 11.5164 95.0698 11.6387 95.1898 11.7875C95.3098 11.9362 95.3697 12.1353 95.3697 12.3848C95.3697 12.4808 95.3433 12.5936 95.2906 12.7231C95.2426 12.8479 95.1586 12.9678 95.0387 13.083C94.9235 13.1981 94.7676 13.2965 94.5708 13.3781C94.3741 13.4548 94.1294 13.4932 93.8367 13.4932Z" fill="white"/>
<path d="M102.11 12.5984H101.707L101.275 12.0442H100.822V12.5984H100.469V10.5759H101.232C101.29 10.5759 101.366 10.5807 101.462 10.5903C101.558 10.5951 101.65 10.6191 101.736 10.6623C101.827 10.7055 101.904 10.7751 101.966 10.871C102.033 10.9622 102.067 11.0941 102.067 11.2669C102.067 11.4972 102.036 11.6651 101.973 11.7707C101.911 11.8714 101.798 11.9458 101.635 11.9938L102.11 12.5984ZM100.822 11.7203H101.239C101.378 11.7203 101.491 11.6963 101.578 11.6483C101.669 11.5955 101.714 11.4876 101.714 11.3244C101.714 11.2285 101.7 11.1541 101.671 11.1013C101.642 11.0485 101.604 11.0078 101.556 10.979C101.513 10.9502 101.462 10.9334 101.405 10.9286C101.347 10.919 101.292 10.9142 101.239 10.9142H100.822V11.7203ZM101.232 9.40996C101.53 9.40996 101.808 9.46754 102.067 9.5827C102.331 9.69306 102.561 9.8466 102.758 10.0433C102.955 10.2353 103.108 10.4632 103.219 10.7271C103.334 10.991 103.391 11.2717 103.391 11.5692C103.391 11.8666 103.334 12.1473 103.219 12.4112C103.108 12.6751 102.955 12.9054 102.758 13.1022C102.561 13.2941 102.331 13.4476 102.067 13.5628C101.808 13.6732 101.53 13.7283 101.232 13.7283C100.935 13.7283 100.654 13.6732 100.39 13.5628C100.126 13.4476 99.8959 13.2941 99.6991 13.1022C99.5024 12.9054 99.3465 12.6751 99.2313 12.4112C99.1209 12.1473 99.0658 11.8666 99.0658 11.5692C99.0658 11.2717 99.1209 10.991 99.2313 10.7271C99.3465 10.4632 99.5024 10.2353 99.6991 10.0433C99.8959 9.8466 100.126 9.69306 100.39 9.5827C100.654 9.46754 100.935 9.40996 101.232 9.40996ZM101.232 13.4548C101.491 13.4548 101.736 13.4069 101.966 13.3109C102.197 13.2101 102.396 13.0758 102.564 12.9078C102.736 12.7351 102.871 12.5336 102.967 12.3033C103.067 12.073 103.118 11.8283 103.118 11.5692C103.118 11.31 103.067 11.0653 102.967 10.835C102.871 10.6047 102.736 10.4056 102.564 10.2377C102.396 10.0649 102.197 9.93057 101.966 9.8346C101.736 9.73384 101.491 9.68346 101.232 9.68346C100.968 9.68346 100.721 9.73384 100.491 9.8346C100.265 9.93057 100.066 10.0649 99.8935 10.2377C99.7255 10.4056 99.5912 10.6047 99.4904 10.835C99.3944 11.0653 99.3465 11.31 99.3465 11.5692C99.3465 11.8283 99.3944 12.073 99.4904 12.3033C99.5912 12.5336 99.7255 12.7351 99.8935 12.9078C100.066 13.0758 100.265 13.2101 100.491 13.3109C100.721 13.4069 100.968 13.4548 101.232 13.4548Z" fill="white"/>
<g filter="url(#filter0_d_3603_331)">
<path d="M9.09384 17.0638C8.77451 17.3541 8.45519 17.5791 8.13586 17.7387C7.81654 17.8984 7.51173 18.0145 7.22143 18.0871C6.93114 18.1597 6.65536 18.2032 6.39409 18.2177C6.14734 18.2322 5.92962 18.2395 5.74093 18.2395C5.08776 18.2395 4.47088 18.1161 3.89029 17.8694C3.32422 17.6081 2.82346 17.2597 2.38802 16.8243C1.96709 16.3743 1.62599 15.8591 1.36472 15.2785C1.11797 14.6834 0.994598 14.052 0.994598 13.3843C0.994598 12.7166 1.11797 12.0925 1.36472 11.5119C1.62599 10.9168 1.96709 10.4015 2.38802 9.96608C2.82346 9.51612 3.32422 9.16776 3.89029 8.92101C4.47088 8.65975 5.08776 8.52911 5.74093 8.52911C5.92962 8.52911 6.14734 8.53637 6.39409 8.55089C6.65536 8.5654 6.93114 8.60895 7.22143 8.68152C7.51173 8.75409 7.81654 8.87021 8.13586 9.02987C8.45519 9.18954 8.77451 9.41452 9.09384 9.70481V4.98025H11.2275V18H9.09384V17.0638ZM6.08928 16.2365C6.51021 16.2365 6.90211 16.1711 7.26498 16.0405C7.62785 15.8954 7.93991 15.6994 8.20118 15.4527C8.47696 15.1914 8.69468 14.8866 8.85434 14.5382C9.01401 14.1899 9.09384 13.8052 9.09384 13.3843C9.09384 12.9634 9.01401 12.5787 8.85434 12.2304C8.69468 11.882 8.47696 11.5845 8.20118 11.3377C7.93991 11.0765 7.62785 10.8805 7.26498 10.7499C6.90211 10.6047 6.51021 10.5322 6.08928 10.5322C5.68287 10.5322 5.29823 10.6047 4.93536 10.7499C4.57249 10.8805 4.25316 11.0765 3.97738 11.3377C3.71612 11.5845 3.50565 11.882 3.34599 12.2304C3.20084 12.5787 3.12827 12.9634 3.12827 13.3843C3.12827 13.8052 3.20084 14.1899 3.34599 14.5382C3.50565 14.8866 3.71612 15.1914 3.97738 15.4527C4.25316 15.6994 4.57249 15.8954 4.93536 16.0405C5.29823 16.1711 5.68287 16.2365 6.08928 16.2365Z" fill="white"/>
</g>
<g filter="url(#filter1_d_3603_331)">
<path d="M20.3453 14.2987H12.9863C13.1024 14.6906 13.2621 15.01 13.4653 15.2567C13.6685 15.5035 13.8935 15.6994 14.1402 15.8446C14.4015 15.9897 14.67 16.0913 14.9458 16.1494C15.2216 16.2074 15.4901 16.2365 15.7513 16.2365C15.9836 16.2365 16.2303 16.2147 16.4916 16.1711C16.7384 16.1421 16.9924 16.0913 17.2536 16.0187C17.5149 15.9462 17.7834 15.8446 18.0592 15.7139L19.2567 17.4122C18.9228 17.5718 18.5672 17.7097 18.1898 17.8258C17.8415 17.9419 17.4568 18.0363 17.0359 18.1089C16.6295 18.1959 16.194 18.2395 15.7296 18.2395C15.0329 18.2395 14.387 18.1234 13.7919 17.8911C13.1967 17.6589 12.6815 17.3323 12.246 16.9114C11.8106 16.4759 11.4695 15.9607 11.2227 15.3656C10.976 14.7705 10.8526 14.11 10.8526 13.3843C10.8526 12.7166 10.9687 12.0925 11.201 11.5119C11.4332 10.9168 11.7598 10.4015 12.1807 9.96608C12.6016 9.51612 13.1024 9.16776 13.683 8.92101C14.2636 8.65975 14.9022 8.52911 15.5989 8.52911C16.2086 8.52911 16.7964 8.63797 17.3625 8.8557C17.9286 9.0589 18.4293 9.37823 18.8648 9.81367C19.3147 10.2346 19.6703 10.7644 19.9316 11.403C20.2074 12.0272 20.3453 12.7529 20.3453 13.5803V14.2987ZM15.5989 10.5322C15.0909 10.5322 14.5829 10.6846 14.0749 10.9894C13.5669 11.2942 13.2113 11.7877 13.0081 12.4699H18.1898C18.0011 11.7877 17.6455 11.2942 17.123 10.9894C16.615 10.6846 16.107 10.5322 15.5989 10.5322ZM14.5321 7.5276L16.0126 4.7843H18.4511L16.644 7.5276H14.5321Z" fill="white"/>
</g>
<g filter="url(#filter2_d_3603_331)">
<path d="M21.986 5.32512H22.2988V4.09453H22.7883V3.74438H21.4863V4.09453H21.986V5.32512ZM24.7838 4.2169V5.32512H25.0965V3.74438H24.7566L24.1515 4.51945L23.5464 3.74438H23.203V5.32512H23.5192V4.2169L24.1243 4.98517H24.1787L24.7838 4.2169Z" fill="white"/>
</g>
<defs>
<filter id="filter0_d_3603_331" x="0.00339836" y="4.98022" width="12.2139" height="15.2408" filterUnits="userSpaceOnUse" color-interpolation-filters="sRGB">
<feFlood flood-opacity="0" result="BackgroundImageFix"/>
<feColorMatrix in="SourceAlpha" type="matrix" values="0 0 0 0 0 0 0 0 0 0 0 0 0 0 0 0 0 0 127 0" result="hardAlpha"/>
<feOffset dy="0.990742"/>
<feGaussianBlur stdDeviation="0.495371"/>
<feComposite in2="hardAlpha" operator="out"/>
<feColorMatrix type="matrix" values="0 0 0 0 0 0 0 0 0 0 0 0 0 0 0 0 0 0 0.06 0"/>
<feBlend mode="normal" in2="BackgroundImageFix" result="effect1_dropShadow_3603_331"/>
<feBlend mode="normal" in="SourceGraphic" in2="effect1_dropShadow_3603_331" result="shape"/>
</filter>
<filter id="filter1_d_3603_331" x="9.86277" y="4.78442" width="11.4737" height="15.4366" filterUnits="userSpaceOnUse" color-interpolation-filters="sRGB">
<feFlood flood-opacity="0" result="BackgroundImageFix"/>
<feColorMatrix in="SourceAlpha" type="matrix" values="0 0 0 0 0 0 0 0 0 0 0 0 0 0 0 0 0 0 127 0" result="hardAlpha"/>
<feOffset dy="0.990742"/>
<feGaussianBlur stdDeviation="0.495371"/>
<feComposite in2="hardAlpha" operator="out"/>
<feColorMatrix type="matrix" values="0 0 0 0 0 0 0 0 0 0 0 0 0 0 0 0 0 0 0.06 0"/>
<feBlend mode="normal" in2="BackgroundImageFix" result="effect1_dropShadow_3603_331"/>
<feBlend mode="normal" in="SourceGraphic" in2="effect1_dropShadow_3603_331" result="shape"/>
</filter>
<filter id="filter2_d_3603_331" x="20.4956" y="3.74438" width="5.59086" height="3.5623" filterUnits="userSpaceOnUse" color-interpolation-filters="sRGB">
<feFlood flood-opacity="0" result="BackgroundImageFix"/>
<feColorMatrix in="SourceAlpha" type="matrix" values="0 0 0 0 0 0 0 0 0 0 0 0 0 0 0 0 0 0 127 0" result="hardAlpha"/>
<feOffset dy="0.990742"/>
<feGaussianBlur stdDeviation="0.495371"/>
<feComposite in2="hardAlpha" operator="out"/>
<feColorMatrix type="matrix" values="0 0 0 0 0 0 0 0 0 0 0 0 0 0 0 0 0 0 0.06 0"/>
<feBlend mode="normal" in2="BackgroundImageFix" result="effect1_dropShadow_3603_331"/>
<feBlend mode="normal" in="SourceGraphic" in2="effect1_dropShadow_3603_331" result="shape"/>
</filter>
</defs>
</svg>
