<svg width="212" height="70" viewBox="0 0 212 70" fill="none" xmlns="http://www.w3.org/2000/svg">
<g filter="url(#filter0_d_501_292)">
<path d="M27.5345 49.0415C26.6139 49.8784 25.6934 50.5269 24.7728 50.9872C23.8523 51.4474 22.9736 51.7822 22.1368 51.9914C21.2999 52.2006 20.5049 52.3261 19.7517 52.368C19.0404 52.4098 18.4128 52.4307 17.8688 52.4307C15.9859 52.4307 14.2076 52.0751 12.5339 51.3638C10.902 50.6106 9.45848 49.6064 8.2032 48.3511C6.98977 47.054 6.00647 45.5686 5.2533 43.8949C4.54198 42.1793 4.18632 40.3592 4.18632 38.4344C4.18632 36.5097 4.54198 34.7104 5.2533 33.0367C6.00647 31.3212 6.98977 29.8358 8.2032 28.5805C9.45848 27.2834 10.902 26.2792 12.5339 25.5678C14.2076 24.8147 15.9859 24.4381 17.8688 24.4381C18.4128 24.4381 19.0404 24.459 19.7517 24.5009C20.5049 24.5427 21.2999 24.6682 22.1368 24.8774C22.9736 25.0866 23.8523 25.4214 24.7728 25.8817C25.6934 26.3419 26.6139 26.9905 27.5345 27.8273V14.2076H33.6853V51.7403H27.5345V49.0415ZM18.8731 46.6565C20.0865 46.6565 21.2162 46.4682 22.2623 46.0916C23.3084 45.6732 24.208 45.1083 24.9611 44.397C25.7561 43.6438 26.3838 42.7651 26.8441 41.7609C27.3043 40.7567 27.5345 39.6479 27.5345 38.4344C27.5345 37.221 27.3043 36.1122 26.8441 35.1079C26.3838 34.1037 25.7561 33.2459 24.9611 32.5346C24.208 31.7815 23.3084 31.2166 22.2623 30.84C21.2162 30.4216 20.0865 30.2124 18.8731 30.2124C17.7015 30.2124 16.5926 30.4216 15.5466 30.84C14.5005 31.2166 13.58 31.7815 12.785 32.5346C12.0318 33.2459 11.4251 34.1037 10.9648 35.1079C10.5464 36.1122 10.3372 37.221 10.3372 38.4344C10.3372 39.6479 10.5464 40.7567 10.9648 41.7609C11.4251 42.7651 12.0318 43.6438 12.785 44.397C13.58 45.1083 14.5005 45.6732 15.5466 46.0916C16.5926 46.4682 17.7015 46.6565 18.8731 46.6565Z" fill="white"/>
</g>
<g filter="url(#filter1_d_501_292)">
<path d="M59.9313 41.0705H38.7171C39.0519 42.2002 39.5121 43.1208 40.0979 43.8321C40.6837 44.5434 41.3323 45.1083 42.0436 45.5267C42.7968 45.9452 43.5709 46.2381 44.3659 46.4054C45.1609 46.5728 45.935 46.6565 46.6881 46.6565C47.3576 46.6565 48.0689 46.5937 48.8221 46.4682C49.5334 46.3845 50.2657 46.2381 51.0188 46.0288C51.772 45.8196 52.5461 45.5267 53.3411 45.1501L56.7931 50.0457C55.8307 50.506 54.8056 50.9035 53.7177 51.2382C52.7135 51.573 51.6046 51.845 50.3912 52.0542C49.2196 52.3052 47.9643 52.4307 46.6254 52.4307C44.6169 52.4307 42.7549 52.096 41.0394 51.4265C39.3238 50.757 37.8384 49.8156 36.5832 48.6022C35.3279 47.3469 34.3446 45.8615 33.6333 44.1459C32.9219 42.4304 32.5663 40.5265 32.5663 38.4344C32.5663 36.5097 32.901 34.7104 33.5705 33.0367C34.24 31.3212 35.1814 29.8358 36.3949 28.5805C37.6083 27.2834 39.0519 26.2792 40.7256 25.5678C42.3993 24.8147 44.2403 24.4381 46.2488 24.4381C48.0062 24.4381 49.7008 24.7519 51.3327 25.3795C52.9645 25.9653 54.4081 26.8859 55.6634 28.1412C56.9605 29.3546 57.9856 30.8818 58.7388 32.7229C59.5338 34.5221 59.9313 36.6143 59.9313 38.9993V41.0705ZM46.2488 30.2124C44.7843 30.2124 43.3198 30.6517 41.8553 31.5304C40.3908 32.4091 39.3657 33.8317 38.7799 35.7983H53.7177C53.1737 33.8317 52.1486 32.4091 50.6423 31.5304C49.1778 30.6517 47.7133 30.2124 46.2488 30.2124ZM43.1734 21.551L47.4413 13.6427H54.4708L49.2615 21.551H43.1734Z" fill="white"/>
</g>
<g filter="url(#filter2_d_501_292)">
<path d="M59.4765 25.1285H65.188V23.4966C65.188 20.9442 65.5855 18.9776 66.3805 17.5968C67.1755 16.1742 68.0752 15.1281 69.0794 14.4586C70.1254 13.7473 71.1297 13.3289 72.092 13.2034C73.0963 13.036 73.7657 12.9523 74.1005 12.9523C75.4394 12.9523 76.9249 13.0778 78.5567 13.3289V18.9149C78.1801 18.873 77.8663 18.8521 77.6153 18.8521C77.406 18.8103 77.2387 18.7893 77.1131 18.7893C76.9458 18.7893 76.8202 18.7893 76.7366 18.7893C75.3976 18.7893 74.3515 19.0404 73.5984 19.5425C72.887 20.0446 72.364 20.5886 72.0293 21.1744C71.6109 21.8438 71.3807 22.6179 71.3389 23.4966V25.1285H78.6195V30.9028H71.3389V51.7403H65.188V30.9028H59.4765V25.1285Z" fill="white"/>
</g>
<g filter="url(#filter3_d_501_292)">
<path d="M93.0937 52.4307C90.2066 52.4307 87.9262 51.9286 86.2525 50.9244C84.5788 49.8784 83.3026 48.6649 82.4239 47.2841C81.587 45.9033 81.064 44.5016 80.8548 43.0789C80.6456 41.6563 80.541 40.5475 80.541 39.7525V25.1285H86.6918V40.0035C86.6918 40.5056 86.7546 41.1333 86.8801 41.8864C87.0057 42.6396 87.2776 43.3718 87.6961 44.0832C88.1563 44.7945 88.8049 45.4012 89.6417 45.9033C90.5204 46.4054 91.6711 46.6565 93.0937 46.6565C94.5164 46.6565 95.6461 46.4054 96.483 45.9033C97.3617 45.4012 98.0102 44.7945 98.4287 44.0832C98.8889 43.3718 99.1818 42.6396 99.3074 41.8864C99.4329 41.1333 99.4957 40.5056 99.4957 40.0035V25.1285H105.647V39.7525C105.647 40.5475 105.542 41.6563 105.333 43.0789C105.123 44.5016 104.58 45.9033 103.701 47.2841C102.864 48.6649 101.609 49.8784 99.935 50.9244C98.2613 51.9286 95.9809 52.4307 93.0937 52.4307Z" fill="white"/>
</g>
<g filter="url(#filter4_d_501_292)">
<path d="M104.816 25.1285H110.528V15.9022C111.741 15.6093 112.787 15.3373 113.666 15.0863C114.545 14.7934 115.549 14.5005 116.679 14.2076V25.1285H123.959V30.9028H116.679V41.6354C116.679 41.9283 116.7 42.3467 116.742 42.8906C116.825 43.3928 117.014 43.8949 117.306 44.397C117.599 44.8991 118.081 45.3384 118.75 45.715C119.42 46.0916 120.34 46.2799 121.512 46.2799C121.805 46.2799 122.097 46.2799 122.39 46.2799C122.683 46.2799 122.955 46.2799 123.206 46.2799C123.457 46.2381 123.687 46.2171 123.897 46.2171V51.5521C123.52 51.5939 123.102 51.6148 122.641 51.6148C122.223 51.6567 121.742 51.6985 121.198 51.7403C120.696 51.7403 120.11 51.7403 119.44 51.7403C119.106 51.7403 118.436 51.6985 117.432 51.6148C116.47 51.4893 115.465 51.1127 114.419 50.4851C113.415 49.8156 112.516 48.7904 111.721 47.4096C110.925 46.0288 110.528 44.0622 110.528 41.5098V30.9028H104.816V25.1285Z" fill="white"/>
</g>
<g filter="url(#filter5_d_501_292)">
<path d="M138.077 52.4307C135.19 52.4307 132.909 51.9286 131.236 50.9244C129.562 49.8784 128.286 48.6649 127.407 47.2841C126.57 45.9033 126.047 44.5016 125.838 43.0789C125.629 41.6563 125.524 40.5475 125.524 39.7525V25.1285H131.675V40.0035C131.675 40.5056 131.738 41.1333 131.863 41.8864C131.989 42.6396 132.261 43.3718 132.679 44.0832C133.139 44.7945 133.788 45.4012 134.625 45.9033C135.503 46.4054 136.654 46.6565 138.077 46.6565C139.499 46.6565 140.629 46.4054 141.466 45.9033C142.345 45.4012 142.993 44.7945 143.412 44.0832C143.872 43.3718 144.165 42.6396 144.29 41.8864C144.416 41.1333 144.479 40.5056 144.479 40.0035V25.1285H150.63V39.7525C150.63 40.5475 150.525 41.6563 150.316 43.0789C150.107 44.5016 149.563 45.9033 148.684 47.2841C147.847 48.6649 146.592 49.8784 144.918 50.9244C143.244 51.9286 140.964 52.4307 138.077 52.4307Z" fill="white"/>
</g>
<g filter="url(#filter6_d_501_292)">
<path d="M151.523 24.3881H157.674V28.6561C158.469 27.5263 159.348 26.6476 160.31 26.02C161.272 25.3924 162.193 24.9321 163.071 24.6392C163.95 24.3463 164.745 24.1789 165.457 24.1371C166.168 24.0952 166.649 24.0743 166.9 24.0743C167.193 24.0743 167.507 24.0743 167.842 24.0743C168.218 24.0743 168.574 24.0952 168.909 24.1371V30.0369C168.448 29.9532 168.072 29.8904 167.779 29.8486C167.611 29.8486 167.486 29.8486 167.402 29.8486C165.728 29.8486 164.264 30.2252 163.009 30.9783C161.795 31.6897 160.791 32.5893 159.996 33.6772C159.201 34.7651 158.615 35.9367 158.239 37.192C157.862 38.4472 157.674 39.5979 157.674 40.644V51H151.523V24.3881Z" fill="white"/>
</g>
<g filter="url(#filter7_d_501_292)">
<path d="M188.902 49.0415C187.982 49.8784 187.061 50.5269 186.141 50.9872C185.22 51.4474 184.341 51.7822 183.505 51.9914C182.668 52.2006 181.873 52.3261 181.12 52.368C180.408 52.4098 179.781 52.4307 179.237 52.4307C177.354 52.4307 175.575 52.0751 173.902 51.3638C172.27 50.6106 170.826 49.6064 169.571 48.3511C168.358 47.054 167.374 45.5686 166.621 43.8949C165.91 42.1793 165.554 40.3592 165.554 38.4344C165.554 36.5097 165.91 34.7104 166.621 33.0367C167.374 31.3212 168.358 29.8358 169.571 28.5805C170.826 27.2834 172.27 26.2792 173.902 25.5678C175.575 24.8147 177.354 24.4381 179.237 24.4381C179.781 24.4381 180.408 24.459 181.12 24.5009C181.873 24.5427 182.668 24.6682 183.505 24.8774C184.341 25.0866 185.22 25.4214 186.141 25.8817C187.061 26.3419 187.982 26.9905 188.902 27.8273V25.1285H195.053V51.7403H188.902V49.0415ZM180.241 46.6565C181.454 46.6565 182.584 46.4682 183.63 46.0916C184.676 45.6732 185.576 45.1083 186.329 44.397C187.124 43.6438 187.752 42.7651 188.212 41.7609C188.672 40.7567 188.902 39.6479 188.902 38.4344C188.902 37.221 188.672 36.1122 188.212 35.1079C187.752 34.1037 187.124 33.2459 186.329 32.5346C185.576 31.7815 184.676 31.2166 183.63 30.84C182.584 30.4216 181.454 30.2124 180.241 30.2124C179.069 30.2124 177.96 30.4216 176.914 30.84C175.868 31.2166 174.948 31.7815 174.153 32.5346C173.4 33.2459 172.793 34.1037 172.333 35.1079C171.914 36.1122 171.705 37.221 171.705 38.4344C171.705 39.6479 171.914 40.7567 172.333 41.7609C172.793 42.7651 173.4 43.6438 174.153 44.397C174.948 45.1083 175.868 45.6732 176.914 46.0916C177.96 46.4682 179.069 46.6565 180.241 46.6565Z" fill="white"/>
</g>
<path d="M202.365 19.5776H203.267V16.0301H204.678V15.0207H200.925V16.0301H202.365V19.5776ZM210.43 16.3829V19.5776H211.332V15.0207H210.352L208.608 17.255L206.863 15.0207H205.874V19.5776H206.785V16.3829L208.529 18.5976H208.686L210.43 16.3829Z" fill="white"/>
<defs>
<filter id="filter0_d_501_292" x="0.537691" y="14.2076" width="36.7962" height="45.5204" filterUnits="userSpaceOnUse" color-interpolation-filters="sRGB">
<feFlood flood-opacity="0" result="BackgroundImageFix"/>
<feColorMatrix in="SourceAlpha" type="matrix" values="0 0 0 0 0 0 0 0 0 0 0 0 0 0 0 0 0 0 127 0" result="hardAlpha"/>
<feOffset dy="3.64863"/>
<feGaussianBlur stdDeviation="1.82431"/>
<feComposite in2="hardAlpha" operator="out"/>
<feColorMatrix type="matrix" values="0 0 0 0 0 0 0 0 0 0 0 0 0 0 0 0 0 0 0.15 0"/>
<feBlend mode="normal" in2="BackgroundImageFix" result="effect1_dropShadow_501_292"/>
<feBlend mode="normal" in="SourceGraphic" in2="effect1_dropShadow_501_292" result="shape"/>
</filter>
<filter id="filter1_d_501_292" x="28.9176" y="13.6427" width="34.6623" height="46.0853" filterUnits="userSpaceOnUse" color-interpolation-filters="sRGB">
<feFlood flood-opacity="0" result="BackgroundImageFix"/>
<feColorMatrix in="SourceAlpha" type="matrix" values="0 0 0 0 0 0 0 0 0 0 0 0 0 0 0 0 0 0 127 0" result="hardAlpha"/>
<feOffset dy="3.64863"/>
<feGaussianBlur stdDeviation="1.82431"/>
<feComposite in2="hardAlpha" operator="out"/>
<feColorMatrix type="matrix" values="0 0 0 0 0 0 0 0 0 0 0 0 0 0 0 0 0 0 0.15 0"/>
<feBlend mode="normal" in2="BackgroundImageFix" result="effect1_dropShadow_501_292"/>
<feBlend mode="normal" in="SourceGraphic" in2="effect1_dropShadow_501_292" result="shape"/>
</filter>
<filter id="filter2_d_501_292" x="55.8279" y="12.9523" width="26.4402" height="46.0853" filterUnits="userSpaceOnUse" color-interpolation-filters="sRGB">
<feFlood flood-opacity="0" result="BackgroundImageFix"/>
<feColorMatrix in="SourceAlpha" type="matrix" values="0 0 0 0 0 0 0 0 0 0 0 0 0 0 0 0 0 0 127 0" result="hardAlpha"/>
<feOffset dy="3.64863"/>
<feGaussianBlur stdDeviation="1.82431"/>
<feComposite in2="hardAlpha" operator="out"/>
<feColorMatrix type="matrix" values="0 0 0 0 0 0 0 0 0 0 0 0 0 0 0 0 0 0 0.15 0"/>
<feBlend mode="normal" in2="BackgroundImageFix" result="effect1_dropShadow_501_292"/>
<feBlend mode="normal" in="SourceGraphic" in2="effect1_dropShadow_501_292" result="shape"/>
</filter>
<filter id="filter3_d_501_292" x="76.8924" y="25.1285" width="32.4028" height="34.5995" filterUnits="userSpaceOnUse" color-interpolation-filters="sRGB">
<feFlood flood-opacity="0" result="BackgroundImageFix"/>
<feColorMatrix in="SourceAlpha" type="matrix" values="0 0 0 0 0 0 0 0 0 0 0 0 0 0 0 0 0 0 127 0" result="hardAlpha"/>
<feOffset dy="3.64863"/>
<feGaussianBlur stdDeviation="1.82431"/>
<feComposite in2="hardAlpha" operator="out"/>
<feColorMatrix type="matrix" values="0 0 0 0 0 0 0 0 0 0 0 0 0 0 0 0 0 0 0.15 0"/>
<feBlend mode="normal" in2="BackgroundImageFix" result="effect1_dropShadow_501_292"/>
<feBlend mode="normal" in="SourceGraphic" in2="effect1_dropShadow_501_292" result="shape"/>
</filter>
<filter id="filter4_d_501_292" x="101.168" y="14.2076" width="26.4402" height="44.83" filterUnits="userSpaceOnUse" color-interpolation-filters="sRGB">
<feFlood flood-opacity="0" result="BackgroundImageFix"/>
<feColorMatrix in="SourceAlpha" type="matrix" values="0 0 0 0 0 0 0 0 0 0 0 0 0 0 0 0 0 0 127 0" result="hardAlpha"/>
<feOffset dy="3.64863"/>
<feGaussianBlur stdDeviation="1.82431"/>
<feComposite in2="hardAlpha" operator="out"/>
<feColorMatrix type="matrix" values="0 0 0 0 0 0 0 0 0 0 0 0 0 0 0 0 0 0 0.15 0"/>
<feBlend mode="normal" in2="BackgroundImageFix" result="effect1_dropShadow_501_292"/>
<feBlend mode="normal" in="SourceGraphic" in2="effect1_dropShadow_501_292" result="shape"/>
</filter>
<filter id="filter5_d_501_292" x="121.875" y="25.1285" width="32.4028" height="34.5995" filterUnits="userSpaceOnUse" color-interpolation-filters="sRGB">
<feFlood flood-opacity="0" result="BackgroundImageFix"/>
<feColorMatrix in="SourceAlpha" type="matrix" values="0 0 0 0 0 0 0 0 0 0 0 0 0 0 0 0 0 0 127 0" result="hardAlpha"/>
<feOffset dy="3.64863"/>
<feGaussianBlur stdDeviation="1.82431"/>
<feComposite in2="hardAlpha" operator="out"/>
<feColorMatrix type="matrix" values="0 0 0 0 0 0 0 0 0 0 0 0 0 0 0 0 0 0 0.15 0"/>
<feBlend mode="normal" in2="BackgroundImageFix" result="effect1_dropShadow_501_292"/>
<feBlend mode="normal" in="SourceGraphic" in2="effect1_dropShadow_501_292" result="shape"/>
</filter>
<filter id="filter6_d_501_292" x="147.874" y="24.0743" width="24.6828" height="34.2229" filterUnits="userSpaceOnUse" color-interpolation-filters="sRGB">
<feFlood flood-opacity="0" result="BackgroundImageFix"/>
<feColorMatrix in="SourceAlpha" type="matrix" values="0 0 0 0 0 0 0 0 0 0 0 0 0 0 0 0 0 0 127 0" result="hardAlpha"/>
<feOffset dy="3.64863"/>
<feGaussianBlur stdDeviation="1.82431"/>
<feComposite in2="hardAlpha" operator="out"/>
<feColorMatrix type="matrix" values="0 0 0 0 0 0 0 0 0 0 0 0 0 0 0 0 0 0 0.15 0"/>
<feBlend mode="normal" in2="BackgroundImageFix" result="effect1_dropShadow_501_292"/>
<feBlend mode="normal" in="SourceGraphic" in2="effect1_dropShadow_501_292" result="shape"/>
</filter>
<filter id="filter7_d_501_292" x="161.906" y="24.4381" width="36.7962" height="35.2899" filterUnits="userSpaceOnUse" color-interpolation-filters="sRGB">
<feFlood flood-opacity="0" result="BackgroundImageFix"/>
<feColorMatrix in="SourceAlpha" type="matrix" values="0 0 0 0 0 0 0 0 0 0 0 0 0 0 0 0 0 0 127 0" result="hardAlpha"/>
<feOffset dy="3.64863"/>
<feGaussianBlur stdDeviation="1.82431"/>
<feComposite in2="hardAlpha" operator="out"/>
<feColorMatrix type="matrix" values="0 0 0 0 0 0 0 0 0 0 0 0 0 0 0 0 0 0 0.15 0"/>
<feBlend mode="normal" in2="BackgroundImageFix" result="effect1_dropShadow_501_292"/>
<feBlend mode="normal" in="SourceGraphic" in2="effect1_dropShadow_501_292" result="shape"/>
</filter>
</defs>
</svg>
