<svg width="174" height="42" viewBox="0 0 174 42" fill="none" xmlns="http://www.w3.org/2000/svg">
<rect x="54.4913" y="5.08374" width="0.411535" height="31.2767" fill="white"/>
<path d="M66.52 17.056H67.5006V23.98H66.52V17.056ZM78.0203 17.056H79.0009V23.98H78.0083L73.9783 18.6585V23.98H72.9977V17.056H73.9903L78.0203 22.3656V17.056ZM85.4776 17.9529V23.0831H87.1637C87.5384 23.0831 87.8693 23.0233 88.1563 22.9037C88.4513 22.7762 88.7024 22.6008 88.9097 22.3775C89.117 22.1463 89.2724 21.8753 89.3761 21.5644C89.4877 21.2455 89.5435 20.8987 89.5435 20.524C89.5435 20.1493 89.4877 19.8065 89.3761 19.4956C89.2724 19.1767 89.117 18.9056 88.9097 18.6824C88.7024 18.4512 88.4513 18.2718 88.1563 18.1442C87.8693 18.0167 87.5384 17.9529 87.1637 17.9529H85.4776ZM90.5241 20.512C90.5241 21.0063 90.4483 21.4647 90.2969 21.8872C90.1454 22.3098 89.9222 22.6765 89.6272 22.9874C89.3402 23.2983 88.9854 23.5415 88.5629 23.7169C88.1403 23.8923 87.658 23.98 87.1159 23.98H84.497V17.056H87.1159C87.658 17.056 88.1403 17.1437 88.5629 17.3191C88.9854 17.4945 89.3402 17.7377 89.6272 18.0486C89.9222 18.3595 90.1454 18.7262 90.2969 19.1488C90.4483 19.5633 90.5241 20.0177 90.5241 20.512ZM98.5246 24.1115C98.5007 24.1115 98.413 24.1075 98.2615 24.0996C98.11 24.0916 97.9306 24.0597 97.7234 24.0039C97.5161 23.9561 97.2928 23.8763 97.0537 23.7647C96.8225 23.6531 96.6072 23.4937 96.4079 23.2864C96.2086 23.0791 96.0412 22.816 95.9057 22.4971C95.7781 22.1782 95.7143 21.7876 95.7143 21.3252V17.056H96.6949V21.3252C96.6949 21.397 96.7069 21.5365 96.7308 21.7437C96.7547 21.951 96.8265 22.1663 96.946 22.3895C97.0656 22.6048 97.249 22.7961 97.4961 22.9635C97.7433 23.1309 98.0861 23.2146 98.5246 23.2146C98.971 23.2146 99.3138 23.1309 99.553 22.9635C99.8001 22.7961 99.9835 22.6048 100.103 22.3895C100.223 22.1663 100.294 21.951 100.318 21.7437C100.342 21.5365 100.354 21.397 100.354 21.3252V17.056H101.335V21.3252C101.335 21.7876 101.267 22.1782 101.132 22.4971C101.004 22.816 100.841 23.0791 100.641 23.2864C100.442 23.4937 100.223 23.6531 99.9835 23.7647C99.7523 23.8763 99.5331 23.9561 99.3258 24.0039C99.1185 24.0597 98.9391 24.0916 98.7877 24.0996C98.6362 24.1075 98.5485 24.1115 98.5246 24.1115ZM109.08 24.1115C108.697 24.1115 108.362 24.0717 108.075 23.9919C107.788 23.9122 107.537 23.8165 107.322 23.7049C107.115 23.5854 106.939 23.4578 106.796 23.3223C106.652 23.1788 106.537 23.0472 106.449 22.9276L107.154 22.3656C107.242 22.4613 107.354 22.5609 107.489 22.6645C107.625 22.7602 107.776 22.8519 107.944 22.9396C108.119 23.0193 108.306 23.0871 108.506 23.1429C108.705 23.1907 108.916 23.2146 109.14 23.2146C109.458 23.2146 109.714 23.1708 109.905 23.0831C110.104 22.9954 110.256 22.8957 110.359 22.7841C110.471 22.6645 110.547 22.5489 110.587 22.4373C110.626 22.3178 110.646 22.234 110.646 22.1862C110.646 21.947 110.547 21.7557 110.347 21.6122C110.148 21.4687 109.897 21.3411 109.594 21.2295C109.291 21.1179 108.964 21.0063 108.613 20.8947C108.271 20.7831 107.948 20.6396 107.645 20.4642C107.342 20.2888 107.091 20.0656 106.891 19.7945C106.692 19.5235 106.592 19.1727 106.592 18.7422C106.592 18.5827 106.624 18.3994 106.688 18.1921C106.76 17.9848 106.879 17.7895 107.047 17.6061C107.222 17.4148 107.461 17.2553 107.764 17.1278C108.067 17.0002 108.458 16.9364 108.936 16.9364C109.279 16.9364 109.582 16.9723 109.845 17.0441C110.108 17.1158 110.335 17.2035 110.527 17.3072C110.718 17.4108 110.878 17.5224 111.005 17.642C111.133 17.7616 111.232 17.8692 111.304 17.9649C111.169 18.0526 111.053 18.1403 110.957 18.228C110.862 18.3077 110.75 18.3914 110.622 18.4791C110.391 18.2479 110.112 18.0845 109.785 17.9888C109.466 17.8851 109.156 17.8333 108.853 17.8333C108.685 17.8333 108.526 17.8533 108.374 17.8931C108.223 17.933 108.087 17.9968 107.968 18.0845C107.848 18.1642 107.752 18.2678 107.681 18.3954C107.609 18.515 107.573 18.6585 107.573 18.8259C107.573 19.1209 107.673 19.3521 107.872 19.5195C108.071 19.6869 108.322 19.8304 108.625 19.95C108.928 20.0696 109.251 20.1812 109.594 20.2848C109.945 20.3805 110.272 20.508 110.575 20.6675C110.878 20.8269 111.129 21.0302 111.328 21.2774C111.527 21.5245 111.627 21.8554 111.627 22.2699C111.627 22.4294 111.583 22.6167 111.495 22.832C111.416 23.0392 111.276 23.2386 111.077 23.4299C110.886 23.6212 110.626 23.7847 110.3 23.9202C109.973 24.0477 109.566 24.1115 109.08 24.1115ZM116.115 17.9529V17.056H121.712V17.9529H119.404V23.98H118.423V17.9529H116.115ZM132.075 19.4477C132.075 19.8543 132.019 20.1971 131.908 20.4761C131.796 20.7472 131.656 20.9704 131.489 21.1458C131.322 21.3212 131.134 21.4567 130.927 21.5524C130.728 21.6481 130.536 21.7198 130.353 21.7677L132.075 23.98H130.951L129.289 21.8514H127.89V23.98H126.909V17.056H129.576C129.639 17.056 129.743 17.06 129.887 17.068C130.03 17.076 130.194 17.1039 130.377 17.1517C130.568 17.1995 130.764 17.2713 130.963 17.3669C131.162 17.4626 131.342 17.5981 131.501 17.7735C131.668 17.9489 131.804 18.1721 131.908 18.4432C132.019 18.7143 132.075 19.0491 132.075 19.4477ZM127.89 20.9545H129.6C129.815 20.9545 130.01 20.9306 130.186 20.8827C130.369 20.8269 130.528 20.7432 130.664 20.6316C130.799 20.512 130.903 20.3566 130.975 20.1652C131.055 19.9739 131.094 19.7387 131.094 19.4597C131.094 19.1806 131.055 18.9455 130.975 18.7541C130.903 18.5628 130.799 18.4073 130.664 18.2877C130.528 18.1682 130.369 18.0845 130.186 18.0366C130.01 17.9808 129.815 17.9529 129.6 17.9529H127.89V20.9545ZM137.077 17.056H138.058V23.98H137.077V17.056ZM148.099 23.0831V23.98H143.555V17.056H148.099V17.9529H144.535V20.1533H147.836V21.0502H144.535V23.0831H148.099ZM155.727 24.1115C155.345 24.1115 155.01 24.0717 154.723 23.9919C154.436 23.9122 154.185 23.8165 153.969 23.7049C153.762 23.5854 153.587 23.4578 153.443 23.3223C153.3 23.1788 153.184 23.0472 153.096 22.9276L153.802 22.3656C153.89 22.4613 154.001 22.5609 154.137 22.6645C154.272 22.7602 154.424 22.8519 154.591 22.9396C154.767 23.0193 154.954 23.0871 155.153 23.1429C155.352 23.1907 155.564 23.2146 155.787 23.2146C156.106 23.2146 156.361 23.1708 156.552 23.0831C156.752 22.9954 156.903 22.8957 157.007 22.7841C157.118 22.6645 157.194 22.5489 157.234 22.4373C157.274 22.3178 157.294 22.234 157.294 22.1862C157.294 21.947 157.194 21.7557 156.995 21.6122C156.795 21.4687 156.544 21.3411 156.241 21.2295C155.938 21.1179 155.612 21.0063 155.261 20.8947C154.918 20.7831 154.595 20.6396 154.292 20.4642C153.989 20.2888 153.738 20.0656 153.539 19.7945C153.339 19.5235 153.24 19.1727 153.24 18.7422C153.24 18.5827 153.272 18.3994 153.335 18.1921C153.407 17.9848 153.527 17.7895 153.694 17.6061C153.87 17.4148 154.109 17.2553 154.412 17.1278C154.715 17.0002 155.105 16.9364 155.584 16.9364C155.926 16.9364 156.229 16.9723 156.493 17.0441C156.756 17.1158 156.983 17.2035 157.174 17.3072C157.365 17.4108 157.525 17.5224 157.652 17.642C157.78 17.7616 157.88 17.8692 157.951 17.9649C157.816 18.0526 157.7 18.1403 157.605 18.228C157.509 18.3077 157.397 18.3914 157.27 18.4791C157.039 18.2479 156.76 18.0845 156.433 17.9888C156.114 17.8851 155.803 17.8333 155.5 17.8333C155.333 17.8333 155.173 17.8533 155.022 17.8931C154.87 17.933 154.735 17.9968 154.615 18.0845C154.495 18.1642 154.4 18.2678 154.328 18.3954C154.256 18.515 154.22 18.6585 154.22 18.8259C154.22 19.1209 154.32 19.3521 154.519 19.5195C154.719 19.6869 154.97 19.8304 155.273 19.95C155.576 20.0696 155.899 20.1812 156.241 20.2848C156.592 20.3805 156.919 20.508 157.222 20.6675C157.525 20.8269 157.776 21.0302 157.975 21.2774C158.175 21.5245 158.274 21.8554 158.274 22.2699C158.274 22.4294 158.23 22.6167 158.143 22.832C158.063 23.0392 157.924 23.2386 157.724 23.4299C157.533 23.6212 157.274 23.7847 156.947 23.9202C156.62 24.0477 156.213 24.1115 155.727 24.1115Z" fill="white"/>
<path d="M169.829 20.9633H169.159L168.442 20.0425H167.688V20.9633H167.102V17.603H168.37C168.465 17.603 168.593 17.6109 168.752 17.6269C168.912 17.6348 169.063 17.6747 169.207 17.7465C169.358 17.8182 169.486 17.9338 169.59 18.0933C169.701 18.2447 169.757 18.464 169.757 18.751C169.757 19.1336 169.705 19.4127 169.602 19.5881C169.498 19.7555 169.311 19.8791 169.039 19.9588L169.829 20.9633ZM167.688 19.5044H168.382C168.613 19.5044 168.8 19.4645 168.944 19.3848C169.095 19.2971 169.171 19.1177 169.171 18.8466C169.171 18.6872 169.147 18.5636 169.099 18.4759C169.051 18.3882 168.988 18.3205 168.908 18.2726C168.836 18.2248 168.752 18.1969 168.657 18.1889C168.561 18.173 168.469 18.165 168.382 18.165H167.688V19.5044ZM168.37 15.6657C168.864 15.6657 169.326 15.7614 169.757 15.9527C170.195 16.1361 170.578 16.3912 170.905 16.718C171.232 17.0369 171.487 17.4156 171.67 17.8541C171.862 18.2926 171.957 18.7589 171.957 19.2532C171.957 19.7475 171.862 20.2139 171.67 20.6524C171.487 21.0908 171.232 21.4735 170.905 21.8004C170.578 22.1193 170.195 22.3744 169.757 22.5657C169.326 22.7491 168.864 22.8408 168.37 22.8408C167.876 22.8408 167.409 22.7491 166.971 22.5657C166.532 22.3744 166.15 22.1193 165.823 21.8004C165.496 21.4735 165.237 21.0908 165.045 20.6524C164.862 20.2139 164.77 19.7475 164.77 19.2532C164.77 18.7589 164.862 18.2926 165.045 17.8541C165.237 17.4156 165.496 17.0369 165.823 16.718C166.15 16.3912 166.532 16.1361 166.971 15.9527C167.409 15.7614 167.876 15.6657 168.37 15.6657ZM168.37 22.3863C168.8 22.3863 169.207 22.3066 169.59 22.1472C169.972 21.9798 170.303 21.7565 170.582 21.4775C170.869 21.1905 171.092 20.8557 171.252 20.473C171.419 20.0903 171.503 19.6837 171.503 19.2532C171.503 18.8227 171.419 18.4161 171.252 18.0335C171.092 17.6508 170.869 17.3199 170.582 17.0409C170.303 16.7539 169.972 16.5307 169.59 16.3712C169.207 16.2038 168.8 16.1201 168.37 16.1201C167.931 16.1201 167.521 16.2038 167.138 16.3712C166.763 16.5307 166.433 16.7539 166.146 17.0409C165.866 17.3199 165.643 17.6508 165.476 18.0335C165.316 18.4161 165.237 18.8227 165.237 19.2532C165.237 19.6837 165.316 20.0903 165.476 20.473C165.643 20.8557 165.866 21.1905 166.146 21.4775C166.433 21.7565 166.763 21.9798 167.138 22.1472C167.521 22.3066 167.931 22.3863 168.37 22.3863Z" fill="white"/>
<g filter="url(#filter0_d_628_322)">
<path d="M15.28 28.4445C14.7495 28.9268 14.2189 29.3006 13.6883 29.5659C13.1578 29.8312 12.6513 30.0241 12.169 30.1447C11.6867 30.2653 11.2284 30.3376 10.7943 30.3617C10.3844 30.3859 10.0226 30.3979 9.7091 30.3979C8.62385 30.3979 7.59889 30.1929 6.63423 29.783C5.69368 29.3489 4.86165 28.7701 4.13815 28.0466C3.43877 27.2989 2.87203 26.4428 2.43793 25.4781C2.02795 24.4894 1.82296 23.4403 1.82296 22.3309C1.82296 21.2215 2.02795 20.1845 2.43793 19.2199C2.87203 18.2311 3.43877 17.3749 4.13815 16.6514C4.86165 15.9038 5.69368 15.325 6.63423 14.915C7.59889 14.4809 8.62385 14.2639 9.7091 14.2639C10.0226 14.2639 10.3844 14.276 10.7943 14.3001C11.2284 14.3242 11.6867 14.3965 12.169 14.5171C12.6513 14.6377 13.1578 14.8306 13.6883 15.0959C14.2189 15.3612 14.7495 15.735 15.28 16.2173V8.36738H18.8252V30H15.28V28.4445ZM10.2879 27.0698C10.9873 27.0698 11.6384 26.9613 12.2413 26.7443C12.8443 26.5031 13.3628 26.1775 13.7969 25.7675C14.2551 25.3334 14.6168 24.827 14.8821 24.2482C15.1474 23.6694 15.28 23.0303 15.28 22.3309C15.28 21.6315 15.1474 20.9924 14.8821 20.4136C14.6168 19.8348 14.2551 19.3405 13.7969 18.9305C13.3628 18.4964 12.8443 18.1708 12.2413 17.9537C11.6384 17.7126 10.9873 17.592 10.2879 17.592C9.61263 17.592 8.97354 17.7126 8.37062 17.9537C7.76771 18.1708 7.23714 18.4964 6.77893 18.9305C6.34483 19.3405 5.99514 19.8348 5.72985 20.4136C5.48869 20.9924 5.3681 21.6315 5.3681 22.3309C5.3681 23.0303 5.48869 23.6694 5.72985 24.2482C5.99514 24.827 6.34483 25.3334 6.77893 25.7675C7.23714 26.1775 7.76771 26.5031 8.37062 26.7443C8.97354 26.9613 9.61263 27.0698 10.2879 27.0698Z" fill="white"/>
</g>
<g filter="url(#filter1_d_628_322)">
<path d="M33.9729 23.8503H21.7458C21.9387 24.5014 22.204 25.032 22.5416 25.442C22.8793 25.8519 23.2531 26.1775 23.6631 26.4187C24.0972 26.6598 24.5433 26.8287 25.0015 26.9251C25.4598 27.0216 25.9059 27.0698 26.34 27.0698C26.7259 27.0698 27.1359 27.0337 27.57 26.9613C27.9799 26.9131 28.402 26.8287 28.8361 26.7081C29.2702 26.5875 29.7163 26.4187 30.1746 26.2016L32.1642 29.0233C31.6095 29.2886 31.0186 29.5177 30.3916 29.7106C29.8128 29.9035 29.1737 30.0603 28.4743 30.1809C27.7991 30.3256 27.0756 30.3979 26.3038 30.3979C25.1462 30.3979 24.0731 30.205 23.0843 29.8191C22.0955 29.4333 21.2393 28.8906 20.5159 28.1913C19.7924 27.4678 19.2256 26.6116 18.8156 25.6228C18.4056 24.6341 18.2007 23.5367 18.2007 22.3309C18.2007 21.2215 18.3936 20.1845 18.7795 19.2199C19.1653 18.2311 19.7079 17.3749 20.4073 16.6514C21.1067 15.9038 21.9387 15.325 22.9034 14.915C23.8681 14.4809 24.9292 14.2639 26.0868 14.2639C27.0997 14.2639 28.0764 14.4448 29.017 14.8065C29.9575 15.1442 30.7895 15.6747 31.513 16.3982C32.2606 17.0976 32.8515 17.9779 33.2856 19.039C33.7438 20.076 33.9729 21.2818 33.9729 22.6565V23.8503ZM26.0868 17.592C25.2427 17.592 24.3986 17.8452 23.5545 18.3517C22.7105 18.8581 22.1196 19.6781 21.782 20.8116H30.3916C30.0781 19.6781 29.4872 18.8581 28.619 18.3517C27.775 17.8452 26.9309 17.592 26.0868 17.592ZM24.3142 12.5999L26.7741 8.04181H30.8257L27.8232 12.5999H24.3142Z" fill="white"/>
</g>
<g filter="url(#filter2_d_628_322)">
<path d="M36.7004 8.84762H37.22V6.80296H38.0334V6.22119H35.8701V6.80296H36.7004V8.84762ZM41.3489 7.00629V8.84762H41.8685V6.22119H41.3037L40.2983 7.50899L39.2929 6.22119H38.7225V8.84762H39.2478V7.00629L40.2531 8.28279H40.3435L41.3489 7.00629Z" fill="white"/>
</g>
<defs>
<filter id="filter0_d_628_322" x="0.176795" y="8.36743" width="20.2945" height="25.3228" filterUnits="userSpaceOnUse" color-interpolation-filters="sRGB">
<feFlood flood-opacity="0" result="BackgroundImageFix"/>
<feColorMatrix in="SourceAlpha" type="matrix" values="0 0 0 0 0 0 0 0 0 0 0 0 0 0 0 0 0 0 127 0" result="hardAlpha"/>
<feOffset dy="1.64614"/>
<feGaussianBlur stdDeviation="0.823071"/>
<feComposite in2="hardAlpha" operator="out"/>
<feColorMatrix type="matrix" values="0 0 0 0 0 0 0 0 0 0 0 0 0 0 0 0 0 0 0.06 0"/>
<feBlend mode="normal" in2="BackgroundImageFix" result="effect1_dropShadow_628_322"/>
<feBlend mode="normal" in="SourceGraphic" in2="effect1_dropShadow_628_322" result="shape"/>
</filter>
<filter id="filter1_d_628_322" x="16.5545" y="8.04175" width="19.0645" height="25.6485" filterUnits="userSpaceOnUse" color-interpolation-filters="sRGB">
<feFlood flood-opacity="0" result="BackgroundImageFix"/>
<feColorMatrix in="SourceAlpha" type="matrix" values="0 0 0 0 0 0 0 0 0 0 0 0 0 0 0 0 0 0 127 0" result="hardAlpha"/>
<feOffset dy="1.64614"/>
<feGaussianBlur stdDeviation="0.823071"/>
<feComposite in2="hardAlpha" operator="out"/>
<feColorMatrix type="matrix" values="0 0 0 0 0 0 0 0 0 0 0 0 0 0 0 0 0 0 0.06 0"/>
<feBlend mode="normal" in2="BackgroundImageFix" result="effect1_dropShadow_628_322"/>
<feBlend mode="normal" in="SourceGraphic" in2="effect1_dropShadow_628_322" result="shape"/>
</filter>
<filter id="filter2_d_628_322" x="34.224" y="6.22119" width="9.2907" height="5.91875" filterUnits="userSpaceOnUse" color-interpolation-filters="sRGB">
<feFlood flood-opacity="0" result="BackgroundImageFix"/>
<feColorMatrix in="SourceAlpha" type="matrix" values="0 0 0 0 0 0 0 0 0 0 0 0 0 0 0 0 0 0 127 0" result="hardAlpha"/>
<feOffset dy="1.64614"/>
<feGaussianBlur stdDeviation="0.823071"/>
<feComposite in2="hardAlpha" operator="out"/>
<feColorMatrix type="matrix" values="0 0 0 0 0 0 0 0 0 0 0 0 0 0 0 0 0 0 0.06 0"/>
<feBlend mode="normal" in2="BackgroundImageFix" result="effect1_dropShadow_628_322"/>
<feBlend mode="normal" in="SourceGraphic" in2="effect1_dropShadow_628_322" result="shape"/>
</filter>
</defs>
</svg>
