<svg width="105" height="25" viewBox="0 0 105 25" fill="none" xmlns="http://www.w3.org/2000/svg">
<rect x="32.6934" y="3.05957" width="0.247686" height="18.8241" fill="white"/>
<path d="M40.1458 9.24683H40.7359V13.4141H40.1458V9.24683ZM47.0673 9.24683H47.6574V13.4141H47.0601L44.6346 10.2113V13.4141H44.0444V9.24683H44.6418L47.0673 12.4424V9.24683ZM51.5555 9.78663V12.8743H52.5703C52.7958 12.8743 52.995 12.8383 53.1677 12.7663C53.3452 12.6895 53.4964 12.584 53.6211 12.4496C53.7459 12.3105 53.8394 12.1473 53.9018 11.9602C53.969 11.7683 54.0026 11.5596 54.0026 11.334C54.0026 11.1085 53.969 10.9022 53.9018 10.7151C53.8394 10.5231 53.7459 10.36 53.6211 10.2257C53.4964 10.0865 53.3452 9.97855 53.1677 9.90178C52.995 9.82501 52.7958 9.78663 52.5703 9.78663H51.5555ZM54.5928 11.3268C54.5928 11.6243 54.5472 11.9002 54.456 12.1545C54.3648 12.4088 54.2305 12.6296 54.053 12.8167C53.8802 13.0038 53.6667 13.1502 53.4124 13.2557C53.1581 13.3613 52.8678 13.4141 52.5415 13.4141H50.9653V9.24683H52.5415C52.8678 9.24683 53.1581 9.29961 53.4124 9.40517C53.6667 9.51073 53.8802 9.65707 54.053 9.8442C54.2305 10.0313 54.3648 10.2521 54.456 10.5064C54.5472 10.7559 54.5928 11.0294 54.5928 11.3268ZM59.4079 13.4932C59.3935 13.4932 59.3407 13.4908 59.2496 13.486C59.1584 13.4812 59.0505 13.462 58.9257 13.4285C58.801 13.3997 58.6666 13.3517 58.5227 13.2845C58.3835 13.2173 58.254 13.1214 58.134 12.9966C58.014 12.8719 57.9133 12.7135 57.8317 12.5216C57.7549 12.3297 57.7166 12.0946 57.7166 11.8163V9.24683H58.3067V11.8163C58.3067 11.8594 58.3139 11.9434 58.3283 12.0682C58.3427 12.1929 58.3859 12.3225 58.4579 12.4568C58.5299 12.5864 58.6402 12.7015 58.789 12.8023C58.9377 12.9031 59.144 12.9534 59.4079 12.9534C59.6766 12.9534 59.8829 12.9031 60.0269 12.8023C60.1756 12.7015 60.286 12.5864 60.358 12.4568C60.4299 12.3225 60.4731 12.1929 60.4875 12.0682C60.5019 11.9434 60.5091 11.8594 60.5091 11.8163V9.24683H61.0993V11.8163C61.0993 12.0946 61.0585 12.3297 60.9769 12.5216C60.9002 12.7135 60.8018 12.8719 60.6818 12.9966C60.5619 13.1214 60.4299 13.2173 60.286 13.2845C60.1468 13.3517 60.0149 13.3997 59.8901 13.4285C59.7654 13.462 59.6574 13.4812 59.5663 13.486C59.4751 13.4908 59.4223 13.4932 59.4079 13.4932ZM65.7607 13.4932C65.5303 13.4932 65.3288 13.4692 65.1561 13.4213C64.9834 13.3733 64.8322 13.3157 64.7027 13.2485C64.5779 13.1766 64.4723 13.0998 64.386 13.0182C64.2996 12.9318 64.23 12.8527 64.1773 12.7807L64.6019 12.4424C64.6547 12.5 64.7218 12.56 64.8034 12.6224C64.885 12.6799 64.9762 12.7351 65.0769 12.7879C65.1825 12.8359 65.2952 12.8767 65.4152 12.9103C65.5351 12.939 65.6623 12.9534 65.7966 12.9534C65.9886 12.9534 66.1421 12.927 66.2573 12.8743C66.3772 12.8215 66.4684 12.7615 66.5308 12.6943C66.5979 12.6224 66.6435 12.5528 66.6675 12.4856C66.6915 12.4136 66.7035 12.3633 66.7035 12.3345C66.7035 12.1905 66.6435 12.0754 66.5236 11.989C66.4036 11.9026 66.2525 11.8259 66.0701 11.7587C65.8878 11.6915 65.6911 11.6243 65.48 11.5572C65.2736 11.49 65.0793 11.4036 64.897 11.2981C64.7147 11.1925 64.5635 11.0581 64.4436 10.895C64.3236 10.7319 64.2636 10.5208 64.2636 10.2616C64.2636 10.1657 64.2828 10.0553 64.3212 9.93057C64.3644 9.80582 64.4364 9.68826 64.5371 9.5779C64.6427 9.46275 64.7866 9.36678 64.969 9.29001C65.1513 9.21324 65.3864 9.17486 65.6743 9.17486C65.8806 9.17486 66.0629 9.19645 66.2213 9.23963C66.3796 9.28282 66.5164 9.3356 66.6315 9.39797C66.7467 9.46035 66.8427 9.52752 66.9194 9.5995C66.9962 9.67147 67.0562 9.73625 67.0994 9.79382C67.0178 9.8466 66.9482 9.89938 66.8906 9.95216C66.8331 10.0001 66.7659 10.0505 66.6891 10.1033C66.55 9.96416 66.382 9.8658 66.1853 9.80822C65.9934 9.74584 65.8062 9.71465 65.6239 9.71465C65.5231 9.71465 65.4272 9.72665 65.336 9.75064C65.2449 9.77463 65.1633 9.81302 65.0913 9.8658C65.0193 9.91378 64.9618 9.97616 64.9186 10.0529C64.8754 10.1249 64.8538 10.2113 64.8538 10.312C64.8538 10.4896 64.9138 10.6287 65.0337 10.7295C65.1537 10.8302 65.3048 10.9166 65.4872 10.9886C65.6695 11.0605 65.8638 11.1277 66.0701 11.1901C66.2813 11.2477 66.478 11.3244 66.6603 11.4204C66.8427 11.5164 66.9938 11.6387 67.1137 11.7875C67.2337 11.9362 67.2937 12.1353 67.2937 12.3848C67.2937 12.4808 67.2673 12.5936 67.2145 12.7231C67.1665 12.8479 67.0826 12.9678 66.9626 13.083C66.8474 13.1981 66.6915 13.2965 66.4948 13.3781C66.2981 13.4548 66.0533 13.4932 65.7607 13.4932ZM69.9949 9.78663V9.24683H73.3632V9.78663H71.9741V13.4141H71.3839V9.78663H69.9949ZM79.6005 10.6863C79.6005 10.931 79.5669 11.1373 79.4997 11.3053C79.4326 11.4684 79.3486 11.6027 79.2478 11.7083C79.1471 11.8139 79.0343 11.8954 78.9096 11.953C78.7896 12.0106 78.6744 12.0538 78.5641 12.0826L79.6005 13.4141H78.9239L77.9235 12.1329H77.0814V13.4141H76.4913V9.24683H78.0963C78.1346 9.24683 78.197 9.24923 78.2834 9.25403C78.3698 9.25882 78.4681 9.27562 78.5785 9.30441C78.6936 9.3332 78.8112 9.37638 78.9311 9.43396C79.0511 9.49154 79.1591 9.57311 79.255 9.67867C79.3558 9.78423 79.4374 9.91858 79.4997 10.0817C79.5669 10.2449 79.6005 10.4464 79.6005 10.6863ZM77.0814 11.5931H78.1107C78.2402 11.5931 78.3578 11.5788 78.4633 11.55C78.5737 11.5164 78.6696 11.466 78.7512 11.3988C78.8328 11.3268 78.8952 11.2333 78.9383 11.1181C78.9863 11.003 79.0103 10.8614 79.0103 10.6935C79.0103 10.5255 78.9863 10.384 78.9383 10.2688C78.8952 10.1537 78.8328 10.0601 78.7512 9.98815C78.6696 9.91618 78.5737 9.8658 78.4633 9.83701C78.3578 9.80342 78.2402 9.78663 78.1107 9.78663H77.0814V11.5931ZM82.6109 9.24683H83.2011V13.4141H82.6109V9.24683ZM89.2445 12.8743V13.4141H86.5096V9.24683H89.2445V9.78663H87.0997V11.1109H89.0862V11.6507H87.0997V12.8743H89.2445ZM93.8357 13.4932C93.6054 13.4932 93.4039 13.4692 93.2312 13.4213C93.0584 13.3733 92.9073 13.3157 92.7777 13.2485C92.653 13.1766 92.5474 13.0998 92.461 13.0182C92.3747 12.9318 92.3051 12.8527 92.2523 12.7807L92.677 12.4424C92.7297 12.5 92.7969 12.56 92.8785 12.6224C92.9601 12.6799 93.0512 12.7351 93.152 12.7879C93.2575 12.8359 93.3703 12.8767 93.4903 12.9103C93.6102 12.939 93.7374 12.9534 93.8717 12.9534C94.0636 12.9534 94.2172 12.927 94.3323 12.8743C94.4523 12.8215 94.5435 12.7615 94.6058 12.6943C94.673 12.6224 94.7186 12.5528 94.7426 12.4856C94.7666 12.4136 94.7786 12.3633 94.7786 12.3345C94.7786 12.1905 94.7186 12.0754 94.5986 11.989C94.4787 11.9026 94.3275 11.8259 94.1452 11.7587C93.9629 11.6915 93.7662 11.6243 93.555 11.5572C93.3487 11.49 93.1544 11.4036 92.9721 11.2981C92.7897 11.1925 92.6386 11.0581 92.5186 10.895C92.3987 10.7319 92.3387 10.5208 92.3387 10.2616C92.3387 10.1657 92.3579 10.0553 92.3963 9.93057C92.4395 9.80582 92.5114 9.68826 92.6122 9.5779C92.7177 9.46275 92.8617 9.36678 93.044 9.29001C93.2264 9.21324 93.4615 9.17486 93.7494 9.17486C93.9557 9.17486 94.138 9.19645 94.2964 9.23963C94.4547 9.28282 94.5914 9.3356 94.7066 9.39797C94.8218 9.46035 94.9177 9.52752 94.9945 9.5995C95.0713 9.67147 95.1312 9.73625 95.1744 9.79382C95.0929 9.8466 95.0233 9.89938 94.9657 9.95216C94.9081 10.0001 94.8409 10.0505 94.7642 10.1033C94.625 9.96416 94.4571 9.8658 94.2604 9.80822C94.0684 9.74584 93.8813 9.71465 93.699 9.71465C93.5982 9.71465 93.5023 9.72665 93.4111 9.75064C93.3199 9.77463 93.2384 9.81302 93.1664 9.8658C93.0944 9.91378 93.0368 9.97616 92.9936 10.0529C92.9505 10.1249 92.9289 10.2113 92.9289 10.312C92.9289 10.4896 92.9888 10.6287 93.1088 10.7295C93.2288 10.8302 93.3799 10.9166 93.5622 10.9886C93.7446 11.0605 93.9389 11.1277 94.1452 11.1901C94.3563 11.2477 94.5531 11.3244 94.7354 11.4204C94.9177 11.5164 95.0689 11.6387 95.1888 11.7875C95.3088 11.9362 95.3688 12.1353 95.3688 12.3848C95.3688 12.4808 95.3424 12.5936 95.2896 12.7231C95.2416 12.8479 95.1576 12.9678 95.0377 13.083C94.9225 13.1981 94.7666 13.2965 94.5699 13.3781C94.3731 13.4548 94.1284 13.4932 93.8357 13.4932Z" fill="white"/>
<path d="M102.11 12.5984H101.707L101.275 12.0442H100.822V12.5984H100.469V10.5759H101.232C101.29 10.5759 101.366 10.5807 101.462 10.5903C101.558 10.5951 101.65 10.6191 101.736 10.6623C101.827 10.7055 101.904 10.7751 101.966 10.871C102.033 10.9622 102.067 11.0941 102.067 11.2669C102.067 11.4972 102.036 11.6651 101.973 11.7707C101.911 11.8714 101.798 11.9458 101.635 11.9938L102.11 12.5984ZM100.822 11.7203H101.239C101.378 11.7203 101.491 11.6963 101.578 11.6483C101.669 11.5955 101.714 11.4876 101.714 11.3244C101.714 11.2285 101.7 11.1541 101.671 11.1013C101.642 11.0485 101.604 11.0078 101.556 10.979C101.513 10.9502 101.462 10.9334 101.405 10.9286C101.347 10.919 101.292 10.9142 101.239 10.9142H100.822V11.7203ZM101.232 9.40996C101.53 9.40996 101.808 9.46754 102.067 9.5827C102.331 9.69306 102.561 9.8466 102.758 10.0433C102.955 10.2353 103.108 10.4632 103.219 10.7271C103.334 10.991 103.391 11.2717 103.391 11.5692C103.391 11.8666 103.334 12.1473 103.219 12.4112C103.108 12.6751 102.955 12.9054 102.758 13.1022C102.561 13.2941 102.331 13.4476 102.067 13.5628C101.808 13.6732 101.53 13.7283 101.232 13.7283C100.935 13.7283 100.654 13.6732 100.39 13.5628C100.126 13.4476 99.8959 13.2941 99.6991 13.1022C99.5024 12.9054 99.3465 12.6751 99.2313 12.4112C99.1209 12.1473 99.0658 11.8666 99.0658 11.5692C99.0658 11.2717 99.1209 10.991 99.2313 10.7271C99.3465 10.4632 99.5024 10.2353 99.6991 10.0433C99.8959 9.8466 100.126 9.69306 100.39 9.5827C100.654 9.46754 100.935 9.40996 101.232 9.40996ZM101.232 13.4548C101.491 13.4548 101.736 13.4069 101.966 13.3109C102.197 13.2101 102.396 13.0758 102.564 12.9078C102.736 12.7351 102.871 12.5336 102.967 12.3033C103.067 12.073 103.118 11.8283 103.118 11.5692C103.118 11.31 103.067 11.0653 102.967 10.835C102.871 10.6047 102.736 10.4056 102.564 10.2377C102.396 10.0649 102.197 9.93057 101.966 9.8346C101.736 9.73384 101.491 9.68346 101.232 9.68346C100.968 9.68346 100.721 9.73384 100.491 9.8346C100.265 9.93057 100.066 10.0649 99.8935 10.2377C99.7255 10.4056 99.5912 10.6047 99.4904 10.835C99.3944 11.0653 99.3465 11.31 99.3465 11.5692C99.3465 11.8283 99.3944 12.073 99.4904 12.3033C99.5912 12.5336 99.7255 12.7351 99.8935 12.9078C100.066 13.0758 100.265 13.2101 100.491 13.3109C100.721 13.4069 100.968 13.4548 101.232 13.4548Z" fill="white"/>
<g filter="url(#filter0_d_2836_954)">
<path d="M9.09384 17.0638C8.77451 17.3541 8.45519 17.5791 8.13586 17.7387C7.81654 17.8984 7.51173 18.0145 7.22143 18.0871C6.93114 18.1597 6.65536 18.2032 6.39409 18.2177C6.14734 18.2322 5.92962 18.2395 5.74093 18.2395C5.08776 18.2395 4.47088 18.1161 3.89029 17.8694C3.32422 17.6081 2.82346 17.2597 2.38802 16.8243C1.96709 16.3743 1.62599 15.8591 1.36472 15.2785C1.11797 14.6834 0.994598 14.052 0.994598 13.3843C0.994598 12.7166 1.11797 12.0925 1.36472 11.5119C1.62599 10.9168 1.96709 10.4015 2.38802 9.96608C2.82346 9.51612 3.32422 9.16776 3.89029 8.92101C4.47088 8.65975 5.08776 8.52911 5.74093 8.52911C5.92962 8.52911 6.14734 8.53637 6.39409 8.55089C6.65536 8.5654 6.93114 8.60895 7.22143 8.68152C7.51173 8.75409 7.81654 8.87021 8.13586 9.02987C8.45519 9.18954 8.77451 9.41452 9.09384 9.70481V4.98025H11.2275V18H9.09384V17.0638ZM6.08928 16.2365C6.51021 16.2365 6.90211 16.1711 7.26498 16.0405C7.62785 15.8954 7.93991 15.6994 8.20118 15.4527C8.47696 15.1914 8.69468 14.8866 8.85434 14.5382C9.01401 14.1899 9.09384 13.8052 9.09384 13.3843C9.09384 12.9634 9.01401 12.5787 8.85434 12.2304C8.69468 11.882 8.47696 11.5845 8.20118 11.3377C7.93991 11.0765 7.62785 10.8805 7.26498 10.7499C6.90211 10.6047 6.51021 10.5322 6.08928 10.5322C5.68287 10.5322 5.29823 10.6047 4.93536 10.7499C4.57249 10.8805 4.25316 11.0765 3.97738 11.3377C3.71612 11.5845 3.50565 11.882 3.34599 12.2304C3.20084 12.5787 3.12827 12.9634 3.12827 13.3843C3.12827 13.8052 3.20084 14.1899 3.34599 14.5382C3.50565 14.8866 3.71612 15.1914 3.97738 15.4527C4.25316 15.6994 4.57249 15.8954 4.93536 16.0405C5.29823 16.1711 5.68287 16.2365 6.08928 16.2365Z" fill="white"/>
</g>
<g filter="url(#filter1_d_2836_954)">
<path d="M20.3443 14.2987H12.9853C13.1014 14.6906 13.2611 15.01 13.4643 15.2567C13.6675 15.5035 13.8925 15.6994 14.1392 15.8446C14.4005 15.9897 14.669 16.0913 14.9448 16.1494C15.2206 16.2074 15.4891 16.2365 15.7504 16.2365C15.9826 16.2365 16.2294 16.2147 16.4906 16.1711C16.7374 16.1421 16.9914 16.0913 17.2526 16.0187C17.5139 15.9462 17.7824 15.8446 18.0582 15.7139L19.2557 17.4122C18.9218 17.5718 18.5662 17.7097 18.1889 17.8258C17.8405 17.9419 17.4559 18.0363 17.0349 18.1089C16.6285 18.1959 16.1931 18.2395 15.7286 18.2395C15.0319 18.2395 14.386 18.1234 13.7909 17.8911C13.1958 17.6589 12.6805 17.3323 12.2451 16.9114C11.8096 16.4759 11.4685 15.9607 11.2218 15.3656C10.975 14.7705 10.8516 14.11 10.8516 13.3843C10.8516 12.7166 10.9678 12.0925 11.2 11.5119C11.4322 10.9168 11.7588 10.4015 12.1797 9.96608C12.6007 9.51612 13.1014 9.16776 13.682 8.92101C14.2626 8.65975 14.9013 8.52911 15.598 8.52911C16.2076 8.52911 16.7954 8.63797 17.3615 8.8557C17.9276 9.0589 18.4283 9.37823 18.8638 9.81367C19.3137 10.2346 19.6694 10.7644 19.9306 11.403C20.2064 12.0272 20.3443 12.7529 20.3443 13.5803V14.2987ZM15.598 10.5322C15.0899 10.5322 14.5819 10.6846 14.0739 10.9894C13.5659 11.2942 13.2103 11.7877 13.0071 12.4699H18.1889C18.0002 11.7877 17.6445 11.2942 17.122 10.9894C16.614 10.6846 16.106 10.5322 15.598 10.5322ZM14.5311 7.5276L16.0116 4.7843H18.4501L16.643 7.5276H14.5311Z" fill="white"/>
</g>
<g filter="url(#filter2_d_2836_954)">
<path d="M21.986 5.32512H22.2988V4.09453H22.7883V3.74438H21.4863V4.09453H21.986V5.32512ZM24.7838 4.2169V5.32512H25.0965V3.74438H24.7566L24.1515 4.51945L23.5464 3.74438H23.203V5.32512H23.5192V4.2169L24.1243 4.98517H24.1787L24.7838 4.2169Z" fill="white"/>
</g>
<defs>
<filter id="filter0_d_2836_954" x="0.00339836" y="4.98022" width="12.2149" height="15.2408" filterUnits="userSpaceOnUse" color-interpolation-filters="sRGB">
<feFlood flood-opacity="0" result="BackgroundImageFix"/>
<feColorMatrix in="SourceAlpha" type="matrix" values="0 0 0 0 0 0 0 0 0 0 0 0 0 0 0 0 0 0 127 0" result="hardAlpha"/>
<feOffset dy="0.990742"/>
<feGaussianBlur stdDeviation="0.495371"/>
<feComposite in2="hardAlpha" operator="out"/>
<feColorMatrix type="matrix" values="0 0 0 0 0 0 0 0 0 0 0 0 0 0 0 0 0 0 0.06 0"/>
<feBlend mode="normal" in2="BackgroundImageFix" result="effect1_dropShadow_2836_954"/>
<feBlend mode="normal" in="SourceGraphic" in2="effect1_dropShadow_2836_954" result="shape"/>
</filter>
<filter id="filter1_d_2836_954" x="9.86082" y="4.78442" width="11.4746" height="15.4366" filterUnits="userSpaceOnUse" color-interpolation-filters="sRGB">
<feFlood flood-opacity="0" result="BackgroundImageFix"/>
<feColorMatrix in="SourceAlpha" type="matrix" values="0 0 0 0 0 0 0 0 0 0 0 0 0 0 0 0 0 0 127 0" result="hardAlpha"/>
<feOffset dy="0.990742"/>
<feGaussianBlur stdDeviation="0.495371"/>
<feComposite in2="hardAlpha" operator="out"/>
<feColorMatrix type="matrix" values="0 0 0 0 0 0 0 0 0 0 0 0 0 0 0 0 0 0 0.06 0"/>
<feBlend mode="normal" in2="BackgroundImageFix" result="effect1_dropShadow_2836_954"/>
<feBlend mode="normal" in="SourceGraphic" in2="effect1_dropShadow_2836_954" result="shape"/>
</filter>
<filter id="filter2_d_2836_954" x="20.4956" y="3.74438" width="5.59184" height="3.5623" filterUnits="userSpaceOnUse" color-interpolation-filters="sRGB">
<feFlood flood-opacity="0" result="BackgroundImageFix"/>
<feColorMatrix in="SourceAlpha" type="matrix" values="0 0 0 0 0 0 0 0 0 0 0 0 0 0 0 0 0 0 127 0" result="hardAlpha"/>
<feOffset dy="0.990742"/>
<feGaussianBlur stdDeviation="0.495371"/>
<feComposite in2="hardAlpha" operator="out"/>
<feColorMatrix type="matrix" values="0 0 0 0 0 0 0 0 0 0 0 0 0 0 0 0 0 0 0.06 0"/>
<feBlend mode="normal" in2="BackgroundImageFix" result="effect1_dropShadow_2836_954"/>
<feBlend mode="normal" in="SourceGraphic" in2="effect1_dropShadow_2836_954" result="shape"/>
</filter>
</defs>
</svg>
